<?xml version="1.0" encoding="UTF-8"?>
<svg id="Layer_1" data-name="Layer 1" xmlns="http://www.w3.org/2000/svg" viewBox="0 0 64 64">
  <defs>
    <style>
      .cls-1 {
        fill: #672000;
      }
    </style>
  </defs>
  <path class="cls-1" d="M33.67.04C14.69-.92-.92,14.69.04,33.67c.83,16.25,14.03,29.46,30.29,30.29,18.98.97,34.59-14.65,33.63-33.63C63.13,14.08,49.92.87,33.67.04ZM31.27,48.66c-1.62-.34-2.71-1.86-2.71-3.51v-13.5c0-1.65,1.1-3.17,2.71-3.51,2.21-.46,4.18,1.23,4.18,3.37v13.78c0,2.14-1.97,3.83-4.18,3.37ZM32,23.14h0c-2.18,0-3.94-1.76-3.94-3.94h0c0-2.18,1.76-3.94,3.94-3.94h0c2.18,0,3.94,1.76,3.94,3.94h0c0,2.18-1.76,3.94-3.94,3.94Z"/>
</svg>