<?xml version="1.0" encoding="UTF-8"?>
<svg id="Layer_1" xmlns="http://www.w3.org/2000/svg" version="1.1" viewBox="0 0 64 64">
  <!-- Generator: Adobe Illustrator 30.1.0, SVG Export Plug-In . SVG Version: 2.1.1 Build 136)  -->
  <defs>
    <style>
      .st0 {
        fill: #672000;
      }
    </style>
  </defs>
  <path class="st0" d="M32,28.3l27.8-15.3c.6-.3.7-1.1.3-1.6-1.4-1.9-3.6-3.1-6.1-3.1H10c-2.5,0-4.7,1.2-6.1,3.1-.4.5-.2,1.3.4,1.6l27.8,15.3h0Z"/>
  <path class="st0" d="M33.1,34.6c-.3.2-.7.3-1.1.3s-.8,0-1.1-.3L4.2,19.9c-.8-.5-1.9.1-1.9,1.1v27c0,4.2,3.4,7.7,7.6,7.7h44.1c4.2,0,7.7-3.5,7.7-7.7v-27c0-.9-1-1.6-1.9-1.1l-26.8,14.7h0Z"/>
</svg>