<?xml version="1.0" encoding="UTF-8"?>
<svg id="Layer_1" xmlns="http://www.w3.org/2000/svg" version="1.1" viewBox="0 0 64 64">
  <!-- Generator: Adobe Illustrator 30.1.0, SVG Export Plug-In . SVG Version: 2.1.1 Build 136)  -->
  <defs>
    <style>
      .st0 {
        fill: #672000;
      }
    </style>
  </defs>
  <path class="st0" d="M12.8,13.3v4.5c0,.9.8,1.7,1.7,1.7h25.2c.9,0,1.7-.8,1.7-1.7v-4.5c0-.9-.8-1.7-1.7-1.7H14.5c-.9,0-1.7.8-1.7,1.7ZM11.9,64c-2.9,0-5.3-1.1-7.2-3.3-1.6-1.8-2.4-4.1-2.4-6.5V9.8c0-2.4.8-4.7,2.4-6.5C6.6,1.1,9,0,11.9,0h33.9c1.8,0,3.2,1.4,3.2,3.2v48H11.9c-.9,0-1.7.3-2.3.9-.6.6-.9,1.4-.9,2.3s.3,1.7.9,2.3c.6.6,1.4.9,2.3.9h43.5V9.6c0-1.8,1.4-3.2,3.2-3.2h0c1.8,0,3.2,1.4,3.2,3.2v51.2c0,1.8-1.4,3.2-3.2,3.2H11.9Z"/>
</svg>