<?xml version="1.0" encoding="UTF-8"?>
<svg id="Layer_1" xmlns="http://www.w3.org/2000/svg" version="1.1" viewBox="0 0 64 64">
  <!-- Generator: Adobe Illustrator 30.1.0, SVG Export Plug-In . SVG Version: 2.1.1 Build 136)  -->
  <defs>
    <style>
      .st0 {
        fill: #672000;
      }
    </style>
  </defs>
  <path class="st0" d="M31.9,51.7l-15.2,9.5c-2.6,1.6-5.8-.7-5.1-3.7l4.2-17.5c0,0,0-.2,0-.2L2.2,28.4c-2.3-2-1.1-5.7,1.9-6l17.9-1.5c0,0,.1,0,.2-.1l6.8-16.4c1.2-2.8,5.1-2.8,6.3,0l6.8,16.4c0,0,0,.1.2.1l17.8,1.5c3,.3,4.2,4,1.9,6l-13.6,11.4c0,0,0,.1,0,.2l4.2,17.5c.7,3-2.5,5.3-5.1,3.7l-15.2-9.5c0,0-.1,0-.2,0h0Z"/>
</svg>