<?xml version="1.0" encoding="UTF-8"?>
<svg id="Layer_1" xmlns="http://www.w3.org/2000/svg" version="1.1" viewBox="0 0 70 70">
  <!-- Generator: Adobe Illustrator 30.1.0, SVG Export Plug-In . SVG Version: 2.1.1 Build 136)  -->
  <defs>
    <style>
      .st0 {
        fill: #672000;
      }
    </style>
  </defs>
  <path class="st0" d="M35,64c-4,0-7.8-.8-11.3-2.3-3.5-1.5-6.6-3.6-9.2-6.2-2.6-2.6-4.7-5.7-6.2-9.2-1.5-3.5-2.3-7.3-2.3-11.3,0-4,.8-7.8,2.3-11.3,1.5-3.5,3.6-6.6,6.2-9.2,2.6-2.6,5.7-4.7,9.2-6.2,3.5-1.5,7.3-2.3,11.3-2.3,4,0,7.8.8,11.3,2.3,3.5,1.5,6.6,3.6,9.2,6.2,2.6,2.6,4.7,5.7,6.2,9.2s2.3,7.3,2.3,11.3c0,4-.8,7.8-2.3,11.3-1.5,3.5-3.6,6.6-6.2,9.2-2.6,2.6-5.7,4.7-9.2,6.2-3.5,1.5-7.3,2.3-11.2,2.3h0ZM34.8,45.6c-1.2,0-2.2.4-3,1.2s-1.2,1.8-1.2,3c0,1.2.4,2.2,1.2,3,.8.8,1.8,1.2,3,1.2s2.2-.4,3-1.2c.8-.8,1.2-1.8,1.2-3,0-1.2-.4-2.2-1.2-3-.8-.8-1.8-1.2-3-1.2h0ZM35.3,20.8c4.4,0,4.6,4.2,4.6,4.7,0,.9-.3,1.9-.9,2.7-.6.9-1.4,1.7-2.2,2.4-3.7,3.1-5.7,5.7-5.7,10.4v.3h7v-.4c-.2-1.8-.3-3.9,3.7-7.7,1.4-1.4,2.4-2.7,3.2-3.9.8-1.3,1.2-2.8,1.2-4.5,0-3-1.1-5.3-3.3-6.9-2.1-1.6-4.7-2.4-7.6-2.4s-5.4.8-7.3,2.4c-1.9,1.6-2.9,2.9-3.7,5v.3c-.1,0,5.6,3,5.6,3v-.4c.5-1.3,1.7-5.1,5.4-5.1Z"/>
</svg>