<?xml version="1.0" encoding="UTF-8"?>
<svg id="Layer_1" xmlns="http://www.w3.org/2000/svg" version="1.1" viewBox="0 0 600 600">
  <!-- Generator: Adobe Illustrator 30.1.0, SVG Export Plug-In . SVG Version: 2.1.1 Build 136)  -->
  <defs>
    <style>
      .st0 {
        fill: #efd4c2;
      }
    </style>
  </defs>
  <g>
    <g>
      <path class="st0" d="M506.6,408.3s0,0-.1,0c-1,0-1.7-.9-1.6-1.9.9-12.3,2.4-24.4,4.5-36.9.2-1,1.1-1.6,2-1.4,1,.2,1.6,1.1,1.4,2-2.2,12.4-3.6,24.4-4.5,36.6,0,.9-.8,1.6-1.7,1.6Z"/>
      <path class="st0" d="M534.4,272c-.1,0-.3,0-.4,0-.9-.2-1.5-1.1-1.3-2.1,6-26.7,10.6-56.1,4.1-89.2-.2-1,.4-1.9,1.4-2.1,1-.2,1.9.4,2.1,1.4,6.6,33.8,1.9,63.5-4.1,90.6-.2.8-.9,1.4-1.7,1.4Z"/>
    </g>
    <g>
      <path class="st0" d="M523.2,102.2c.1.2.3.2.3.3-.6,1.8-1.3,3.5-2.1,5.1-2.8,5.7-6,11.2-8.3,17.1-3.2,7.7-4.8,15.9-4.6,24.2.1,11.8,6,25,18.2,28,7.5,2,16.4.3,22.2-5,9.2-8.5,8.8-22.7,5.6-34-2.1-7.9-6.5-15.1-12.3-21.1-5.7-5.9-12.5-10.7-19.7-14.4,0,0-.2,0-.2,0,0,0,0,0,0,0,0,0,.1,0,.3,0,.2,0,.4,0,.6-.1h0ZM522.1,100.1c.6-.3,1.2,0,1.8.3,15.7,6.7,29.2,20,34,36.6,5.4,17.4,1.8,39.3-18.7,43.8-14.4,3.1-27.5-4.8-32-18.7-4.2-12.6-2.1-26.6,2.9-38.5,2.8-6.8,6.9-13.3,10.2-19.9.6-1.1.9-2.6,1.8-3.5h0Z"/>
      <path class="st0" d="M514.2,172.8c-1.2-11.1,7.8-22.3,14.8-30,7.5-8.1,14.2-16.6,11.6-28.3-.2-1.3,1.7-1.7,2-.4,3.2,12.5-3.7,21.8-11.5,30.6-6.4,7.2-14.8,17.7-14.1,27.7.3,1.8-2.5,2.3-2.8.4h0Z"/>
      <path class="st0" d="M513.9,119.3c4.2,8.1,12.1,14.1,20.1,18,1.4.7.4,2.9-1,2.2-6.5-3.3-12.3-7.8-16.9-13.3-1.5-1.9-2.9-3.9-3.9-6.2-.2-.5,0-1,.5-1.2.5-.2,1,0,1.2.5h0Z"/>
      <path class="st0" d="M523.4,131.9c-.4-4.8.8-9.6,2.4-14.1,1.4-4.3,3.3-8.6,3.1-13.1,0-1.2,1.7-1.4,1.8-.1.5,7.2-3.5,13.6-4.6,20.5-.4,2.2-.5,4.4-.3,6.6.2,1.6-2.3,1.9-2.4.2h0Z"/>
    </g>
  </g>
  <g>
    <path class="st0" d="M463.5,402.1h0c-1,0-1.7-.8-1.7-1.8.3-18.5-1-22.4-1.1-22.6-.4-.9,0-1.9.9-2.3.9-.4,1.9,0,2.3,1,.2.4,1.6,4.5,1.4,23.9,0,1-.8,1.7-1.8,1.7Z"/>
    <g>
      <path class="st0" d="M440.7,256.9c2.7-10.2,8.3-19.3,13.2-28.5,1.6-3,3-6,4-9.2.2-.6.8-1,1.5-.8,7,2.2,12.9,6.5,18.1,11.5,5.2,5.1,9.2,11.4,11.5,18.3.3.9-.2,1.9-1.1,2.2-.9.3-1.9-.2-2.2-1.1-1.1-3.2-2.6-6.2-4.3-9.1-5.4-8.7-13.8-15.1-22.7-19.8,0,0,1.5-.8,1.5-.8-.3,3.7-1.7,7.1-3.2,10.3-3,6.3-6.5,12.2-9.3,18.5-1.4,3.1-2.6,6.3-3.6,9.5-.7,2.2-3.9,1.2-3.4-1h0Z"/>
      <path class="st0" d="M411.9,244.3c-3.3-4.2-5.8-9-7.6-14.1,0,0,1.9.6,1.9.6-3.4,2.9-6.7,6.4-9.6,9.9-8.7,10.6-14.2,24.2-12.7,38,.1,1,.7,3.3-.3,3.4-1,0-3.1-2-3.2-3-.5-4.9-.4-9.8.6-14.7,2.4-12,9.2-22.8,18-31.1,1.8-1.7,3.6-3.2,5.7-4.6.7-.5,1.7-.2,1.9.6,2,4.6,4.6,9,8,12.7,1.5,1.8-1.2,4.1-2.7,2.2h0Z"/>
      <path class="st0" d="M369.2,338.1c-7.6,1.1-15.1,2.7-22.7,4,0,0,.8-2,.8-2,4.7,5.6,10.4,10.7,16.4,15.1,18.3,13.2,41.4,18.6,63.7,17.3,1,0,1.8.7,1.8,1.6,0,1-.7,1.8-1.6,1.8-9.6.6-19.4,0-28.9-1.8-20.4-4.2-41.5-15.2-53.6-32.6-.5-.7-.1-1.8.8-2,5.6-1.7,11.3-2.9,17-4,1.9-.4,3.8-.7,5.8-1,.9-.1,1.8.5,2,1.5.1,1-.5,1.8-1.5,2h0Z"/>
      <path class="st0" d="M486.3,370.8c33.6,0,59.9-14.5,79.8-41.2,0,0,1.4,2,1.4,2-3.9,1-6.9,1.8-11.7,1.8s-12.7-1.9-19-.9c-.9.2-2-.5-1.9-1.4.4-4.1,15.2-.8,17.7-.7,5.3.3,11.3-.3,14.1-1.4s1.4,0,1.6.7c.2.4,0,.9-.2,1.3-2.1,3.4-4.5,6.7-7.1,9.8-7.8,9.3-17.4,17-28.1,22.6-7.2,3.8-14.8,6.5-22.7,8.3-7.9,1.8-16,2.5-24,2.5-.9,0-1.7-.8-1.7-1.7,0-.9.8-1.7,1.7-1.7h0Z"/>
      <path class="st0" d="M373.1,295.2c-7.4-2.3-15.8-1.8-23.2.6,0,0,.1-1.9.1-1.9,3.2,2.1,4.3,5.3,5.8,8.5,3.7,8.8,6.4,18.2,10.7,26.7,5.5,11.1,15.7,19.7,27.7,23.1.8.2,1.3,1.1,1.1,1.9-.2.8-1,1.3-1.8,1.1-6.5-1.5-12.6-4.6-17.8-8.9-10.6-8.3-15.4-21.5-19.4-33.8-1-3.1-2-6.1-3.1-9.1-1.1-2.6-2.2-6-4.4-7.7-.7-.5-.5-1.6.3-1.9,2-.8,4-1.3,6-1.8,6.2-1.3,12.6-1.4,18.8.2.8.2,1.3,1.1,1.1,1.9-.2.8-1.1,1.3-2,1.1h0Z"/>
      <path class="st0" d="M353.3,294.6c8.3,3.3,15.5,8.9,21.4,15.5,2,2.2,3.7,4.6,5.5,7,.6.8.4,1.9-.4,2.5-.8.6-2,.4-2.6-.5-4.5-7.1-10.4-13.4-17.4-18.2-2.3-1.6-4.9-3-7.4-4.1-1.4-.6-.6-2.7.9-2.2h0Z"/>
      <path class="st0" d="M515,348.1c17.7-8.2,26.3-27.4,31-45.3,1.7-6.3,3.4-12.9,7.2-18.4,0,0,1,1.7,1,1.7-1.5.2-3,.5-4.5.8-4.1.9-8.7,2-11.6,5.2-1.4,1.7-4-.3-2.7-2.1,2.2-2.9,5.6-4.3,9-5.2,3.2-.8,6.5-1.1,9.8-.9.8,0,1.4,1,1,1.7-5,11.9-6.7,25.1-12.2,36.9-5.4,12.1-14.3,23.4-26.7,28.8-1.3.5-4.9-.1-5-1.2s2.8-1.6,3.6-1.9h0Z"/>
      <path class="st0" d="M412.1,356.7c-33.7-10.4-43-49.8-37.7-81,0,0,0-1,.8-1.2s1.5.8,1.5.8c0,0,.3.3.4.4,3.5,2.9,7.6,5,11.6,7.1,8.8,4.5,18.1,8.3,27.3,11.9,23.6,9.3,44.7,29.7,48.2,55.6.2,2.2-3,2.7-3.4.5-1.4-9.6-5.4-18.8-11.3-26.6-8.8-11.7-21.2-20.7-34.8-26.1-9.4-3.7-18.7-7.5-27.6-12.3-3.4-1.8-6.7-3.8-9.7-6.2-1.1-1-2.1-1.8-3-3.1,0,0,2.4-.5,2.4-.5-.5,7.8-.7,15.7,0,23.4,1.4,22.8,13.1,46.8,36.1,54,2.2.6,1.4,3.8-.9,3.3h0Z"/>
      <path class="st0" d="M499.9,281.5c2.3-7.5,7.5-13.6,12.8-19.1,4.8-5.2,10.5-10.2,11.5-17.5,0,0,0-.3,0-.3,0-.8,1.3-1,1.6-.2,4,5.6,6.6,11.9,8.6,18.3,6.2,19.3,5.9,41.9-5.8,59.1-1.2,1.8-3.9,0-2.8-1.8,1.7-2.8,3.2-5.6,4.4-8.6,9.1-21.9,3.1-45.3-5.9-66.2,0,0,1.7-.5,1.7-.5,1.7,11.1-12.1,20.1-17.8,28.4-2.1,2.9-3.9,5.9-5.2,9.3-.8,2-3.8,1-3.2-1.1h0Z"/>
      <path class="st0" d="M448.6,321.1c-.4-6.5,1.3-12.6,3.7-18.4,2.9-7.2,7.1-13.7,11.9-19.7,5.6-7.8,9.3-16.8,11.4-26.1.1-.7.3-1.4.3-2,0-1.3.8-1.6,1.8-1,.1,0,.4.2.5.3,11.8,7.8,20.7,19.5,26.5,32.3,5.8,13.2,7.3,28.1,4.7,42.2-.4,2.1-3.5,1.6-3.2-.5,1.1-6.8,1.3-13.7.6-20.5-2.2-20.7-14.4-39.3-30.5-52.1,0,0,1.8-1,1.8-1,.4,3.3-.4,6.3-1.1,9.5-2.3,9-6.8,17.4-12.6,24.6-5.2,7.1-9.4,15.1-11.5,23.6-.7,2.8-1.1,5.8-1,8.5,0,2.1-3,2.3-3.2.2Z"/>
      <path class="st0" d="M461.5,349.7c2.8-3.8,7.1-6.6,11-9,11.7-6.9,25-10.5,37.9-13.8,19.6-5.3,28.6-15.7,38.7-32.7.3-.5,1.1-.7,1.6-.4.5.3.7,1,.4,1.6-2.2,3.9-4.5,7.7-7,11.5-12,17.9-26,21.7-45.6,26.9-8.4,2.5-16.6,5.7-24.2,10.1-3.4,2-6.8,4.2-9.5,7.1,0,0-.2.3-.2.3,0,0,0,0,0,.1,0,0-.5.5-.5.5-1.4,1.4-3.7-.4-2.6-2.1h0Z"/>
      <path class="st0" d="M399.7,290.4c-4.3-15.9,2.8-32.2,11.4-45.3,2.9-4.4,6.1-8.6,9.5-12.5.5-.6,1.3-.6,1.8-.2,4.8,7.1,10.3,13.9,16.4,20,8.1,8.2,16.7,16.4,22.4,26.6,1.4,2.6,2.6,5.5,3,8.7.1.9-.5,1.7-1.4,1.8-.9.1-1.7-.5-1.8-1.4-.4-2.5-1.5-5.1-2.8-7.5-10.1-17.5-28.7-28.4-37.8-46.7,0,0,2.1.2,2.1.2-6.3,8.1-12.1,16.7-16.2,26.1-4,9.2-6.2,19.5-3.6,29.3.5,2.1-2.5,2.9-3.1.9h0Z"/>
      <path class="st0" d="M483.7,261.1c.4-6.2,1.9-12.4,3.6-18.3,1.4-5.6,3.9-11.5,3.1-17.2-.3-.9.7-1.9,1.6-1.4,3.7,1.3,6.9,3.2,10.1,5.5,3.1,2.2,6,4.8,8.5,7.7,2.5,2.9,4.8,6.1,6.4,9.6,1.7,3.5,2.9,7.2,3.6,11,.2.9-.5,1.8-1.4,2-.9.2-1.8-.4-2-1.4-2.8-14.3-13.7-25.4-26.1-32.2,0,0,1.6-1.4,1.6-1.4.6,1.6.8,3.3.7,5-.4,7.8-3.4,15.1-4.9,22.6-.6,2.9-1.1,5.9-1.4,8.8-.3,2.2-3.5,2-3.4-.3h0Z"/>
      <path class="st0" d="M423.8,238.1c2.8-6.6,7-12.4,12-17.5.4-.4,1-.5,1.4-.3,1.8.7,3.2,1.5,4.8,2.4,4.5,2.7,8.4,6.4,11.5,10.5,1.4,1.8-1.3,3.9-2.8,2.1-3.6-5.2-8.6-9.9-14.5-12.5,0,0,1.5-.3,1.5-.3-2.2,2.4-4.3,5.2-6.1,8-1.8,2.8-3.4,5.8-4.6,8.9-.9,2.2-4.1.8-3.2-1.4h0Z"/>
      <path class="st0" d="M418.4,358.8c-11.5-4.7-24.4-3.2-36.6-3.6-11.9-.8-27.6-3-35.3-13.1-.4-.6-.3-1.5.3-1.9.6-.4,1.5-.3,1.9.3,1.7,2.3,4.1,4.1,6.7,5.6,10.9,5.6,23.7,6.5,35.8,6.1,9.6-.3,19.2-.1,28.5,3.3,2.1.9.9,4.1-1.3,3.3h0Z"/>
      <path class="st0" d="M489.7,353.9c9.7-4.8,20.4-5.2,30.8-5.4,10.1-.5,20.2-2.7,29.1-7.6,6-3.1,11.5-7.2,16.7-11.6,1.2-1,2.8.8,1.6,1.8-15.8,13.9-31.3,20.3-52.4,20.5-8.3.1-16.9,1.5-24.3,5.3-2.1,1-3.7-2.1-1.5-3.1h0Z"/>
    </g>
  </g>
  <g>
    <path class="st0" d="M97.5,496.8c-10.5,0-22.3-.7-33.4-3.9-7.1-1.4-15.2-3.3-22.9-8.1-4.6-2.9-10.9-10.4-10.5-17.9.5-7.4,7.2-15.7,11.7-18.9,2.4-1.8,5.1-3,7.8-4.1,1.1-.5,2.2-1,3.2-1.5l1.1-.6c4.8-2.4,10.9-5.4,21.5-8.2,9.9-2.6,15.7-2.7,20.9-2.9,1.4,0,2.7,0,4-.2h0c2-.1,3.9-.3,5.8-.4,4.7-.4,9.6-.8,15.7-.6,7.2.2,17.5,2.4,21.4,3.2.6.1,1.4.3,2.3.4,4.9.9,14.1,2.6,19,5.1,9.5,4.8,13.7,9,16.5,12.4.3.3.6.7,1,1.1,2.6,2.7,7,7.2,2.6,17.7-3.1,7.5-10.6,11.7-14.7,14-.5.3-.9.5-1.3.7-7.1,4.2-16.4,9-36.1,11.4-6.4.8-11.6.8-16.6.9-1.9,0-3.8,0-5.8.1h-.1c-4,.1-8.4.3-13.1.3ZM101.1,434.1c-1.4,0-2.7.1-4.2.2-4.9.1-10.5.3-20.1,2.8-10.3,2.7-16.1,5.6-20.8,7.9l-1.1.6c-1.1.5-2.3,1.1-3.4,1.5-2.5,1.1-5,2.2-7.1,3.8-4.6,3.4-9.9,10.9-10.3,16.3-.4,5.8,4.9,12.3,8.8,14.7,7.2,4.5,15.1,6.3,21.8,7.7,0,0,0,0,.1,0,15.6,4.4,32.9,3.9,45.5,3.5h.1c2,0,3.9,0,5.8-.1,5,0,10.1-.1,16.2-.9,19.1-2.3,27.9-6.9,34.8-10.9.4-.2.8-.5,1.4-.8,3.7-2,10.5-5.8,13.1-12.2,3.5-8.4.5-11.5-1.9-13.9-.4-.4-.8-.9-1.2-1.3-1.7-2.1-5.3-6.4-15.4-11.5-4.4-2.2-13.3-3.9-18-4.8-1-.2-1.8-.3-2.4-.5-3.4-.7-13.8-2.8-20.8-3.1-5.9-.2-10.5.2-15.3.6-1.9.2-3.8.3-5.9.5h0Z"/>
    <path class="st0" d="M63.3,491c4.9-14.9,32.6-24.8,46.9-27.7.9,0,2.8-.7,2.9.8,0,.6-.5,1-1.1.9-1,0-2.2.3-3.2.5-12.3,3.3-24.7,7.9-34.9,15.7-3.4,2.8-6.9,6.1-8.2,10.4-.4,1.6-2.7,1-2.4-.5h0Z"/>
    <path class="st0" d="M33.1,468.9c23.7-10,51.6-9.3,76.7-6.1,0,0,1.2.2,1.2.2l1.3.2c.5,0,.9.6.8,1.2,0,.6-.7,1-1.3.8,0,0-2.4-.3-2.4-.3-18.8-2.4-38-2.8-56.6.6-6.4,1.3-12.7,3.1-18.7,5.7-1.4.7-2.5-1.5-1-2.2h0Z"/>
    <path class="st0" d="M51.9,443.8c20.3-.7,40.4,6.4,57.4,17.2,1,.6,2,1.3,2.9,2,0,0,.1,0,.1,0l.2.2c.6.4.7,1.3,0,1.7-.5.3-1.1.2-1.4-.3,0,0,0,0,0,0-.4-.3-.9-.6-1.3-.9-12.7-8.3-27.1-14.3-42.1-16.6,0,0-3.9-.5-3.9-.5-1.2,0-4.7-.3-5.9-.4-1.4,0-4.5,0-5.9,0-1.7,0-1.8-2.4-.1-2.5h0Z"/>
    <path class="st0" d="M92,432.2c10,8,17.9,19.1,21,31.6.3,1.2-1.6,1.7-1.9.5-2.3-9-7.3-17.1-13.6-23.9-2.1-2.2-4.5-4.4-6.9-6.3-1.2-1,.2-2.8,1.5-2h0Z"/>
    <path class="st0" d="M148.2,437c-14.4,3.6-26.4,16.4-35.3,27.8-.8,1.1-2.5,0-1.7-1.2,7.1-9.4,15.3-18.1,25.4-24.3,3.4-2,7.1-3.7,11.1-4.6.7-.2,1.3.3,1.5.9.2.7-.3,1.4-1,1.5h0Z"/>
    <path class="st0" d="M184.1,463.1c-5.9-2-11.6-3.8-17.7-4.5-12.2-1.1-24.6-.4-36.7,1.2-5.8,1-12.2,2-17.2,5.2-.4.3-1.1.2-1.4-.2-.3-.4-.2-1.1.2-1.4,1.4-1,2.8-1.7,4.3-2.3,10.3-3.8,21.4-4.4,32.2-5,6.2-.2,12.4-.3,18.7.3,6.2.6,12.3,2.5,18.2,4.4,1.5.5.9,2.8-.7,2.4h0Z"/>
    <path class="st0" d="M179.4,452.2c-9.4-.3-18.7,1.8-27.4,5.4-1,.4-1.6-1.1-.6-1.5,4.4-2,8.9-3.6,13.6-4.7,4.7-1.1,9.6-1.7,14.4-1.7.7,0,1.2.6,1.2,1.2,0,.7-.6,1.2-1.3,1.2h0Z"/>
    <path class="st0" d="M166.1,482.8c-9.9-11.8-31.9-16.3-46.7-17.7-2.4-.2-5-.3-7.2,0-.6.1-1.1-.3-1.2-.9,0-.5.3-1,.9-1.1,2.7-.4,5.1-.2,7.7,0,15.5,1.4,38,5.8,48.5,18.2,1,1.3-.9,2.8-1.9,1.5h0Z"/>
    <path class="st0" d="M128.2,493.7c1.6-12.8-14.2-18-17.1-29.4-.3-1.2,1.5-1.7,1.9-.5,1.6,5.5,6.6,9.4,10.4,13.6,4.2,4.3,8.4,10.2,7.3,16.6-.3,1.6-2.7,1.2-2.4-.4h0Z"/>
    <path class="st0" d="M112.6,493.3c4.3-2.5,5.7-7.8,6-12.5,0,0,0-2.5,0-2.5v-2.6c-.3-1.2,1.5-1.4,1.7-.2,0,0,.2,2.7.2,2.7.3,6.3-1,13.9-7,17.4-1.5.7-2.6-1.6-1-2.2h0Z"/>
  </g>
  <g>
    <path class="st0" d="M258.6,446.7c-2.4,0-4.5,0-6.4-.2-1.8,0-3.6-.1-5.7-.1-4.1,0-9.1,0-16.6-.7-.9,0-1.8-.2-2.8-.2-5.4-.4-12.9-1-24-4.6-3.8-1.2-7.2-3-10.4-4.8-1.5-.8-2.9-1.5-4.3-2.2-.3-.2-.7-.3-1.1-.5-4.6-2.2-13.2-6.2-18.2-14.9-6.6-11.4-.7-19,3.1-24,3.9-5.1,14.3-11.7,20-14.4,11.8-5.5,24.1-10.5,45.4-12.1,20.8-4.6,34.6-3.3,43.8-2.4,1.7.2,3.2.3,4.5.4,18.2,1.2,32.1,4.3,46.4,10.4,1.3.6,2.8,1.1,4.3,1.7,3.8,1.5,8.1,3.2,11.3,5.1,6,3.7,15,13.2,16,21.5.3,2,0,4.2-.6,6.6-.3.9-1.2,1.5-2.2,1.2s-1.5-1.2-1.2-2.2c.5-1.9.7-3.7.5-5.2-.8-6.3-8.3-15.2-14.4-19-2.9-1.8-7.1-3.4-10.8-4.9-1.5-.6-3-1.2-4.4-1.8-14-6-27.5-9-45.3-10.1-1.4,0-2.9-.2-4.6-.4-9-.9-22.5-2.1-42.8,2.4,0,0-.2,0-.3,0-20.8,1.5-32.9,6.5-44.3,11.8-5.3,2.5-15.3,8.9-18.7,13.3-4.5,5.9-7.9,11.5-2.9,20.1,4.5,7.7,12.4,11.4,16.7,13.5.4.2.8.4,1.1.5,1.5.7,3,1.5,4.4,2.3,3.1,1.7,6.3,3.4,9.8,4.5,10.7,3.5,17.7,4,23.2,4.4,1,0,2,.1,2.9.2,7.3.7,12.3.7,16.2.7,2.2,0,4,0,5.9.1,10.4.6,28.9-.4,41.9-3.1,1.7-.3,3.8-.6,6.2-1,5.6-.8,12.6-1.7,18.8-3.9.9-.3,1.9.1,2.2,1.1.3.9-.1,1.9-1.1,2.2-6.5,2.3-13.7,3.3-19.5,4.1-2.4.3-4.5.6-6,.9-10.9,2.2-25.5,3.3-36.3,3.3Z"/>
    <path class="st0" d="M327.6,429.5c-14.4-10.8-32.1-16.5-49.6-19.9-5.8-1-11.9-1.9-17.7-1.3-.5.1-1.1-.2-1.1-.8,0-.5.3-1,.8-1.1,1.7-.3,3.2-.3,4.7-.3,10.7.2,21.2,2.7,31.5,5.7,8.8,2.6,17.3,6.1,25.3,10.7,2.7,1.6,5.2,3.2,7.7,5.1.5.4.6,1.2.2,1.7-.4.6-1.3.6-1.8.2h0Z"/>
    <path class="st0" d="M361.7,406.1c-8-3-16.6-4-25-4.8-8.6-.7-17.2-.8-25.8-.8-15-.1-30.1.8-44.5,5.4-2,.6-4.1,1.4-5.9,2.3-.5.3-1.2,0-1.4-.4-.2-.5,0-1.1.5-1.3,2.1-1,4.1-1.8,6.2-2.4,14.5-4.7,30-5.7,45.1-5.7,13,0,26.1.1,38.9,2.2,4.3.7,8.6,1.7,12.7,3.3.6.2,1,.9.7,1.6-.2.6-1,1-1.6.7h0Z"/>
    <path class="st0" d="M329.8,378.6c-2.3.1-6.2.4-8.4.5-3.6.5-7.2.8-10.7,1.7-9.3,1.8-18.7,5.3-27.1,9.7-8.5,4.6-16.4,10.4-23,17.5-.8.7-2.1-.4-1.4-1.3,2.2-2.6,4.6-4.8,7.2-7,12.5-10.5,27.8-17.9,43.8-21.2,3.6-.9,7.3-1.2,10.9-1.8,2.3-.2,6.3-.4,8.6-.6,1.6,0,1.8,2.4,0,2.5h0Z"/>
    <path class="st0" d="M285.5,369.9c-12.4,8.8-21.6,22.5-24.3,37.6-.2,1.5-2.4,1.1-2.2-.4,2.1-11.8,7.9-22.7,16.2-31.4,2.7-2.9,5.7-5.5,9-7.9.6-.4,1.3-.3,1.7.3.4.6.2,1.4-.4,1.8h0Z"/>
    <path class="st0" d="M237.9,369.4c12.1,8,18.8,24.3,23.2,37.6.4,1.3-1.6,1.9-2,.6-3.4-10.2-7.9-20.5-14.7-29-2.3-2.8-4.9-5.3-7.8-7.1-1.4-.9-.1-2.9,1.3-2.1h0Z"/>
    <path class="st0" d="M192.9,380.5c1.7.1,5.3.3,6.9.4,3.6.4,7.8,1.1,11.4,1.9,18,4.2,34.7,12.7,49.4,23.9.4.3.4.8.2,1.2-.3.4-.9.4-1.2.1-4.8-3.6-9.9-6.9-15.2-9.9-11.8-6.6-24.7-11.7-38-14-2.1-.3-4.5-.6-6.7-.9-1.6-.1-5.1-.2-6.7-.3-1.7,0-1.7-2.5,0-2.5h0Z"/>
    <path class="st0" d="M168.2,406.2c7.5-2.4,15.2-3.6,23-4.6,7.7-1,15.5-1.5,23.3-1.5,7.8,0,15.5.3,23.3,1.1,7.8.9,15.6,1.9,22.9,5.3.5.2.7.8.5,1.3-.2.5-.8.7-1.3.4-3.3-1.6-7.1-2.6-10.8-3.4-11.3-2.2-22.9-2.7-34.5-2.6-7.7,0-15.4.5-23,1.6-7.6,1.1-15.2,2.3-22.5,4.7-1.5.5-2.4-1.8-.8-2.3h0Z"/>
    <path class="st0" d="M173.5,394.3c9.4-.5,18.8.9,27.9,3.2,3,.8,6,1.7,9,2.7.5.2.8.7.6,1.2-.2.5-.7.8-1.2.6-8.7-2.9-17.8-4.8-27-5.3-3.1-.2-6.1-.2-9.1,0-1.6,0-1.8-2.3-.2-2.5h0Z"/>
    <path class="st0" d="M191.6,431.5c16.5-17.5,45.2-24.1,68.5-25.2.6,0,1,.4,1,1,0,.6-.4,1-1,1-18.1.9-36.6,5-52.5,13.8-5.2,3-10.1,6.6-14.2,11.1-1.1,1.2-2.9-.4-1.8-1.7h0Z"/>
    <path class="st0" d="M228.4,442.5c2.7-10.3,9.1-18.9,17.9-24.7,2.7-3.5,8.4-8.6,13.3-11.3,1.1-.6,2,1.1.9,1.7-5,2.9-9.2,7-13,11.3-4.1,2.9-7.8,6.2-10.7,10.2-2.9,4-4.8,8.6-6.1,13.4-.4,1.5-2.8.9-2.4-.7h0Z"/>
    <path class="st0" d="M290.3,443.4c-3.7-7-9.2-12.7-15-18-2.9-2.7-5.9-5.3-8.9-8-2.5-2.5-5.7-5.1-6.5-8.7,0-.3,0-.5,0-.4,0,0,0,0-.2-.1-.5-.2-.6-.8-.4-1.2.6-1,1.7-.4,2.2.5.3.5.2.8.3,1,.8,3.2,3.7,5.4,6,7.7,5.9,5.3,12.2,10.3,17.6,16.3,2.7,3,5.1,6.3,7.2,9.8.3.6.1,1.3-.4,1.7-.6.4-1.4.1-1.7-.5h0Z"/>
    <path class="st0" d="M251,444.8c-.4-8.9-4.8-17.2-5.2-26.1,0-1.5,2.2-1.7,2.3-.2.4,6.7,2.9,12.9,4.4,19.4.5,2.2.8,4.5.9,6.8,0,.7-.5,1.3-1.2,1.3-.7,0-1.3-.5-1.3-1.2h0Z"/>
    <path class="st0" d="M303.4,398.6c8.3-.9,15.9-4.2,23.5-7.5,7.7-3.5,16.6-5.1,25-3.5.7.1,1.1.7,1,1.4-.1.7-.8,1.1-1.4,1-8.1-1.6-16.2-.3-23.8,3-7.7,3.2-15.7,6.5-24.1,7.2-1.1.1-1.3-1.5-.2-1.6h0Z"/>
  </g>
  <g>
    <path class="st0" d="M415.7,500.8c-15.5,0-32.6-1.7-39.5-2.7-8.4-1.2-16.5-4-22.4-6-.8-.3-1.5-.5-2.2-.7-1.3-.4-2.8-.8-4.5-1.3-6.3-1.7-15-4.1-23.6-10.3-12.2-8.9-13.3-14.4-12.8-24.9.6-14.2,11.3-24.1,17.7-28.8,3.7-2.7,7.9-4.5,12-6.4,1.7-.8,3.5-1.5,5.1-2.3,1.7-.8,3.4-1.8,5.1-2.6,3.7-2,7.6-4,11.9-5.4,1.2-.4,2.4-.8,3.8-1.3,7-2.5,17.5-6.2,34-7.8,5.7-.6,11.1-.8,15.9-1,1.4,0,2.8-.1,4.1-.2h0c1.8,0,3.8-.2,6-.4,12.4-.8,31.2-2.1,51.4,2.5,10.1-.4,31.8,3.6,43.9,9.3,15,7.1,20.5,12.5,26.2,19,5.3,6,7.5,13.1,6.3,20.5-1.3,8.2-6.4,14.7-9.8,16.9-7,9.5-15.2,15.5-26.5,19.5-14.1,7.5-39.9,11.6-42.8,12-6.8,1-35.1,3.2-47.1,1.9-3.8.3-7.9.4-12.1.4ZM427.8,496.8c0,0,.1,0,.2,0,11.6,1.3,39.6-.9,46.3-1.9,2.8-.4,28.2-4.4,41.8-11.7,0,0,.2,0,.2-.1,10.8-3.8,18.6-9.5,25.2-18.6.1-.2.3-.4.5-.5,2.3-1.4,7.2-7.1,8.4-14.6,1-6.4-.8-12.3-5.4-17.7-5.4-6.1-10.6-11.3-25-18.1-11.7-5.5-32.8-9.4-42.5-9-.2,0-.3,0-.5,0-19.8-4.5-38.3-3.3-50.6-2.5-2.2.1-4.3.3-6.1.4h0c-1.3,0-2.7.1-4.1.2-4.7.2-10.1.4-15.7,1-16.1,1.6-26,5.1-33.2,7.6-1.4.5-2.7.9-3.9,1.3-4,1.3-7.5,3.2-11.3,5.2-1.7.9-3.4,1.8-5.2,2.7-1.7.8-3.5,1.6-5.3,2.4-3.9,1.7-8,3.5-11.4,6-5.8,4.3-15.7,13.3-16.2,26.1-.4,9.2,0,13.6,11.4,21.9,8,5.8,16.3,8.1,22.4,9.7,1.8.5,3.3.9,4.7,1.4.7.2,1.4.5,2.2.7,5.8,2,13.7,4.7,21.7,5.8,9.7,1.4,34.6,3.5,51,2.2,0,0,0,0,.1,0Z"/>
    <path class="st0" d="M351.4,488.8c15.6-12.9,33.5-23.1,52.6-29.6,12.4-4.2,25.5-6.4,38.5-7,4.8-.2,9.5-.3,14.3,0,.5,0,.9.5.9,1,0,.5-.5.9-1,.9-4.6-.3-9.4-.2-14,0-23.5,1.1-46.5,8.3-66.6,20.4-8.1,4.7-15.9,10.1-23,16.1-1.2,1.1-2.9-.7-1.6-1.8h0Z"/>
    <path class="st0" d="M312,453.9c16.9-7.5,35.9-8.9,54.1-10.5,6.1-.4,12.2-.7,18.3-1,18.4-.7,36.8,1.3,54.8,5.1,6,1.3,11.9,2.7,17.8,4.6.5.2.8.7.7,1.3-.2.5-.8.8-1.3.7-5.8-1.8-11.7-3.2-17.6-4.5-17.8-3.7-36.1-5.7-54.3-5-18.2.9-36.5,2-54.4,5.9-5.9,1.3-11.7,3-17.1,5.6-1.4.7-2.6-1.5-1-2.2h0Z"/>
    <path class="st0" d="M379.1,445c-15.8,3.8-32,9.2-44.5,20-4,3.6-7.4,7.9-9.3,12.9-.6,1.5-2.8.7-2.3-.9,6.4-16.1,24.1-24.3,39.4-29.8,5.3-1.8,10.7-3.3,16.1-4.6,1.5-.3,2.1,2,.5,2.4h0Z"/>
    <path class="st0" d="M329.6,425.7c21.9-6.3,44.9-2.8,67.1-.7,19.7,1.7,38.8,9.7,54.4,21.7,2.2,1.8,4.4,3.6,6.4,5.6.4.4.4,1,0,1.4-.4.4-1.1.4-1.4,0-3.9-3.8-8.4-7.2-13-10.2-13.9-9-30-15-46.6-16.3-16.6-1.4-33.3-3.9-50-2.2-5.5.6-10.9,1.6-16.3,3.1-1.5.4-2.3-1.9-.6-2.4h0Z"/>
    <path class="st0" d="M400.6,427.4c-11.9-7.1-25-12.9-38.9-14.5-1.6-.2-1.4-2.6.3-2.4,7.1.8,14.1,2.9,20.7,5.5,6.6,2.7,12.9,5.9,19,9.7,1.1.7,0,2.4-1.1,1.7h0Z"/>
    <path class="st0" d="M403.8,400.9c11.2,4.5,22,10.3,30.9,18.7,2.2,1.5,5.2,4.7,7.2,7.2,4.2,5.3,7.7,11.1,11.1,17,1.6,2.9,3.2,5.9,4.8,8.8.3.5.1,1.2-.4,1.5-.5.3-1.2.1-1.5-.4-1.6-3-3.2-5.9-4.8-8.8-3.3-5.8-6.7-11.5-10.9-16.6-2.1-2.6-4.4-5-7-7-2.1-2-4.4-3.9-6.8-5.6-7.2-5.1-15.1-9.2-23.3-12.4-1.5-.5-.7-2.9.8-2.3h0Z"/>
    <path class="st0" d="M432.8,420.6c-1.8-6.7-5.6-13.3-9.7-18.9-1-1.3.9-2.8,1.9-1.5,2.3,3,4.1,6.2,5.8,9.5,1.7,3.4,3.3,6.7,4.1,10.5.2,1.4-1.9,1.8-2.1.3h0Z"/>
    <path class="st0" d="M478.3,403.9c-12.8,13-18.5,31.5-20.5,49.3,0,.6-.6,1-1.2,1-.6,0-1-.6-.9-1.1,1.4-13.9,5.2-27.6,12.3-39.7,2.4-4,5.3-7.7,8.6-11.1.5-.5,1.2-.5,1.7,0,.5.5.5,1.3,0,1.8h0Z"/>
    <path class="st0" d="M521,413.3c-18.9,3.6-35.4,14.8-49.8,27-4.8,4.2-9.5,8.6-13.8,13.3-.7.8-2.1-.3-1.3-1.1,15.4-16.5,33.5-31.4,55-39.1,3.1-1,6.3-1.9,9.5-2.5.7-.1,1.3.3,1.4,1,.1.7-.3,1.3-1,1.4h0Z"/>
    <path class="st0" d="M551.1,447.2c-11.6-4-23.2-7-35.5-7.1-16.1.2-32.4,3.2-47.6,8.5-3.8,1.4-7.5,3-10.7,5.3-.4.3-1.1.2-1.4-.2-.3-.4-.2-1.1.2-1.4,3.5-2.4,7.3-4.1,11.2-5.5,15.5-5.5,31.9-8.5,48.3-8.8,8.3.1,16.5,1.1,24.5,3.3,4,1,7.9,2.4,11.7,3.6,1.5.5.9,2.8-.7,2.4h0Z"/>
    <path class="st0" d="M547.4,434.6c-9.6.4-19.3,2.5-28.3,5.5-1.3.5-2.1-1.5-.8-2,7-2.6,14.3-4.1,21.6-5.3,2.5-.4,4.9-.7,7.5-.7.7,0,1.2.5,1.2,1.2,0,.7-.6,1.3-1.3,1.2h0Z"/>
    <path class="st0" d="M542.4,466.7c-6.5-3.2-13.3-6.2-20.2-8.5-20.9-6.7-43.6-7.4-65.2-4-.6.1-1.1-.3-1.2-.9,0-.6.3-1.1.9-1.2,22-3.4,45-2.7,66.3,4,7.1,2.3,13.9,5.2,20.7,8.4,1.4.7.4,2.9-1.1,2.2h0Z"/>
    <path class="st0" d="M514.9,484.8c-11.4-12.3-41.6-28-58.2-30.7-1.3,0-1.2-2.1.2-2,5.8.7,11,2.7,16.4,4.8,10.5,4.2,20.6,9.3,30.1,15.5,4.7,3.1,9.3,6.6,13.3,10.7.5.5.5,1.3,0,1.7-.5.5-1.3.4-1.8,0h0Z"/>
    <path class="st0" d="M472.2,494.8c-2.1-14.1-6.2-30.2-16-41-1-.8.3-2.3,1.3-1.4,6.1,6.3,9.7,14.4,12.6,22.6,2.1,6.2,3.6,13,4.6,19.5.2,1.6-2.2,2-2.4.3h0Z"/>
    <path class="st0" d="M403.3,498.1c7.6-11,18-19.6,29.2-26.5,5.4-6.9,15.4-14,23.7-19.2,1-.7,2.1.8,1,1.5-8.5,5.4-17,11.3-23.6,19-5.5,3.6-10.9,7.5-15.7,11.9-4.8,4.4-9.1,9.2-12.7,14.6-.9,1.3-3,0-2-1.4h0Z"/>
    <path class="st0" d="M426.6,498.5c.8-9.1,2.2-18.1,5.6-26.6.2-.4.7-.7,1.2-.5.4.2.7.7.5,1.2-2.4,6.2-3.5,12.8-4.3,19.4-.2,2.2-.4,4.5-.5,6.6-.1,1.6-2.5,1.5-2.5-.1h0Z"/>
  </g>
  <path class="st0" d="M434.6,377.4c-7.5-1.4-18.6-3.7-23.2-10.5-2.2-3.5-.3-7.3,2.8-9.2,4.8-3.1,10.6-3.5,15.9-5.4,4.9-1.7,9.9-3.7,13.8-7.1,1-.8,2-.4,2.9.2,10.2,4.7,21.9,5.4,33.1,6.4,4.1.4,8.2,1.2,12,2.8,2.7,1.2,5.3,2.5,7.2,5,2.5,3.1,1.3,7.2-1.6,9.3-4.4,3.5-9.9,5-15.2,6.4-15.6,3.9-31.9,4.5-47.8,2h0ZM435.2,373.9c15.4,2.3,31.3,1.8,46.4-2,4.8-1.3,9.8-2.6,13.8-5.7,4.6-3.6-1.4-6.9-4.7-8.2-3.4-1.4-7.2-2.2-11-2.5-6.6-.5-13.3-1.2-19.8-2.4-5.4-1.1-10.9-2.3-15.7-5.2,0,0,2.3-.2,2.3-.2-2.2,2-4.8,3.4-7.4,4.7-5.1,2.4-10.4,4.1-15.8,5.4-2.4.6-5,1.4-7,2.8-5.4,3.3.2,7.3,3.8,9,4.7,2.3,9.9,3.6,15.2,4.4h0Z"/>
</svg>