<?xml version="1.0" encoding="UTF-8"?>
<svg id="Layer_1" xmlns="http://www.w3.org/2000/svg" version="1.1" viewBox="0 0 375 160.5">
  <!-- Generator: Adobe Illustrator 30.1.0, SVG Export Plug-In . SVG Version: 2.1.1 Build 136)  -->
  <defs>
    <style>
      .st0 {
        fill: #efd4c2;
      }
    </style>
  </defs>
  <g>
    <path class="st0" d="M123.2,114.2c-6.1.4-12,2-17.7,4.3-5.9,2.4-11.7,5.4-18.1,6.4l.9-2.2c4.2,4.4,9.8,7.6,15.5,9.7,14.9,5.6,39.7,4.8,53.3-4,.3-.2.7-.5.9-.7.8-.6,1.9-.5,2.6.2,1.5,1.9-1.1,3.3-2.4,4.1-2.2,1.3-4.5,2.4-6.8,3.4-14.2,5.5-34.6,5.8-48.8.2-6.3-2.5-12.1-6-16.5-11.4-.5-.6-.4-1.5.2-1.9,6.2-1.7,11.6-4.5,17.8-7.3,5.9-2.6,12.4-4.3,18.9-4.6,1,0,1.9.7,1.9,1.7s-.7,1.9-1.7,1.9h0v.2Z"/>
    <path class="st0" d="M126.6,57.1c-6.8-7.1-16.1-11.3-25.8-12.8l1.2-2c4.3,7.5,4.7,16.6,5.1,25.1,0,8.1.4,16.4,3.1,24.1,3.7,11.3,13.2,20.5,24.8,23.5,3.8,1,7.8,1.4,11.8,1.2,2.3,0,2.6,3.4.2,3.6-13.1,1-26.5-4.9-34.3-15.6-8-10.4-9.3-24.4-9-36.8-.2-8-.4-16.3-3.6-23.7-.6-.8.1-2.1,1.2-2,7.9.4,15.8,2.8,22.3,7.5,2.2,1.6,4.2,3.4,5.9,5.3.7.7.6,1.9-.1,2.6-.7.7-1.8.6-2.5,0h-.3Z"/>
    <path class="st0" d="M120.1,49.4c-1.5-13.1,6-25.5,15.5-33.8.5-.5,1.4-.4,1.8.2,1.7,2,3.4,3.9,5.5,5.5s4.5,3.4,6.3,5.4c.6.7.6,1.8-.1,2.5-.7.6-1.7.6-2.3,0-4.1-3.5-8.8-7.1-11.3-12l1.8.2c-6.2,6.4-11.3,14.2-13.1,23-.6,2.9-.8,5.8-.5,8.7.2,2.3-3.2,2.6-3.5.4h0Z"/>
    <path class="st0" d="M178.9,33.2c-2.1-3.9-4.5-7.5-7.4-10.9-3-3.5-6.5-7.2-7.6-11.8l1.6.6c-4.5,3.6-9,7.6-12.3,12.4s-5.4,10.3-6.1,16c-.3,2.4-3.8,2-3.6-.4,1.2-12.5,9.6-24.5,20.9-30,.5-.3,1.1-.2,1.4.3,1.2,2,2.5,3.8,3.9,5.6,4.5,5.1,9.6,10.3,12.4,16.7,1,2.1-2.1,3.7-3.3,1.6h.1Z"/>
    <path class="st0" d="M172.1,120.5c-31,7.8-51.4-14.4-49.4-44.7.9-15.5,6.5-30.5,14.6-43.6.4-.6,1.1-.8,1.7-.4,0,0,.5.5.6.5,1.6,1.9,3.3,3.7,5.1,5.4,5.9,5.6,13.4,9.3,18.4,16,1.4,1.9-1.3,4-2.8,2.2-1.6-1.9-3.5-3.7-5.5-5.3-4.1-3.3-8.8-6.4-12.6-10.2s-4-4.2-5.1-7h2.4c-8.8,17.6-16.2,37.6-12.1,57.2,3,14.8,13.8,26.3,29.2,27.6,4.8.5,9.7,0,14.5-1.2,1.6-.4,3.7,1.4,3.2,2.6s-1.8.7-2.4.9h.2Z"/>
    <path class="st0" d="M186.3,23.1c.6-.8,1.9-.8,2.5,0s1.1,2,1.8,2.8c6.8,8.1,15.6,14.5,21.5,23.5,12.1,17.8,14.4,41.7,2.2,60.1-9.5,13.6-29,17.4-43.2,9.4-7.5-4-12.3-11.4-15.1-19.2-7-18-2.1-38.9,9.6-53.8,5.7-7.4,13.1-12.9,18.9-20,.7-.8,1.2-1.9,1.8-2.7h0ZM187.5,24.5c.2.4.5.5.7.7-3.5,6.8-9.7,11.5-14.7,17.1-13.9,13.9-21.3,35.1-14.8,54.2,1,2.9,2.3,6,3.8,8.7,7.4,13.8,25.6,17.7,39,10.6,13.5-7,18.6-25.2,17-39.5-.9-8.3-4-16.3-8.4-23.4-3.9-6-8.9-11.1-14-16.2-3.4-3.5-7.2-7-9.3-11.5.2-.2.5-.2.7-.7h0Z"/>
    <path class="st0" d="M252.1,110.5c6.5.3,13,2,18.9,4.6,5.9,2.5,11.4,5.6,17.2,7,1,.2,1.5,1.4.8,2.2-2.2,2.8-4.8,4.9-7.6,6.8-2.8,1.9-5.8,3.4-8.9,4.6-14.2,5.5-34.5,5.2-48.8-.2-2.4-.9-4.7-2-6.8-3.4-1.3-.9-3.9-2.2-2.4-4.2.6-.8,1.8-.9,2.6-.2.4.3,1.3,1,1.8,1.3,13.8,8.2,37.5,8.9,52.4,3.4,5.7-2.1,11.3-5.3,15.5-9.7l.9,2.2c-9.5-1.5-17.6-7.1-26.8-9.3-3-.7-6-1.2-9-1.4-2.4-.2-2.2-3.7.2-3.6h0Z"/>
    <path class="st0" d="M245.9,54.6c7.1-8,17.7-12.3,28.2-12.8.7,0,1.3.4,1.4,1.1,0,.3,0,.6-.2.9-.9,1.7-1.4,3.6-1.8,5.5-3.4,14.4.2,29.2-4.8,43.5-5.4,17.1-22.5,28.6-40.3,27.2-2.4-.2-2.2-3.7.2-3.6,4,.2,8-.2,11.8-1.2,16.5-4.4,25.9-18.9,27.3-35.3.8-8.3.2-16.7,1.6-25,.8-4.3,1.7-8.6,4-12.4l1.2,2c-7.3,1.2-14.4,3.7-20.3,8-2,1.4-3.8,3-5.5,4.8-1.7,1.6-4.2-.8-2.6-2.5h0l-.2-.2Z"/>
    <path class="st0" d="M251.5,49c1-12-5.6-23.2-13.7-31.6l1.8-.2c-2,3.7-5.1,6.9-8.3,9.5l-3,2.6c-.7.6-1.8.6-2.5-.2-.6-.7-.6-1.7,0-2.3,2.7-3.1,6.3-5.1,9.1-8,.9-.9,1.8-1.9,2.7-2.9.4-.6,1.3-.7,1.8-.2,7.2,6.3,13,14.6,15,24,.7,3.2.9,6.5.5,9.8-.1,1-1,1.6-1.9,1.5s-1.6-1-1.5-1.9h0Z"/>
    <path class="st0" d="M192.9,31.5c2-4.2,4.8-8.2,8-11.6s6-6.6,8.4-10.6c.3-.5,1-.6,1.4-.3,11.3,5.5,19.6,17.5,20.9,30,.2,2.4-3.3,2.8-3.6.4-.7-5.7-2.8-11.2-6.1-16-3.2-4.8-7.7-8.8-12.3-12.4l1.6-.6c-1.8,6.9-7.9,11.4-11.6,17.1-1.2,1.8-2.4,3.7-3.4,5.7-1.1,2.1-4.3.5-3.3-1.7h0Z"/>
    <path class="st0" d="M203.8,117c14.3,3.7,30.2,0,38.3-13,8-12.6,7.8-28.5,4.2-42.7-2.4-9.6-6.4-18.9-10.9-27.9h2.4c-1,2.7-3,4.9-5.1,6.9-5.7,5.6-13,9.5-18.1,15.5-1.5,1.8-4.2-.3-2.8-2.2,5-6.7,12.5-10.3,18.4-16,1.6-1.5,3.2-3.1,4.6-4.8.3-.4.6-.7.9-1,.6-.6,1.6-.4,2,.3,10.6,17.4,17.6,38.7,13.5,59.2-2.1,10.4-8.1,20.3-17.4,25.7-9.2,5.5-20.7,5.9-30.9,3.4-.7-.2-3-.7-3.2-1.2-.4-1.2,2.4-2.7,4-2.3h.1Z"/>
    <path class="st0" d="M213.9,119.7c5.5,8.4,4.6,19.9-3.2,26.5-5.7,5.6-14.2,6.4-20,11.7-.7.6-1.5,1.4-1.9,2.1l-.4.3c-.6.4-1.4.3-1.9-.3-.5-.7-1.3-1.5-2-2.1-2.4-2.1-5.1-3.6-8-4.8-8.7-2.9-17.9-9.6-18.7-19.6-.4-4.9.9-9.8,3.5-13.8.5-.8,1.7-1.1,2.5-.6s1.1,1.6.6,2.5c-1.1,1.7-1.8,3.6-2.3,5.6-.5,1.9-.6,4-.5,6,.5,6.1,5.1,11.1,10.4,13.9,6,3,13.4,5.3,16.7,11.8h-2.3c2.3-4.3,6.6-7,10.8-9,7.6-2.9,15.5-8.1,16.3-16.7.3-4-.7-8.1-2.8-11.6-1.2-2,1.8-3.9,3.1-1.9h0Z"/>
    <path class="st0" d="M202.2,17.6c-2.2-2.7-4.8-5.2-7.7-7.4-2.9-2.5-6.2-4.6-8.1-8.2h2.3c-1.1,1.9-2.6,3.3-4.1,4.5-4.2,3.4-8.9,6.6-11.9,11.1-.6.8-1.7,1.1-2.5.5-.9-.6-1.1-1.8-.4-2.6,2.4-3.2,5.5-5.8,8.5-8,2.8-2.1,6.2-4,8.1-6.9.5-.8,1.8-.8,2.3,0,.8,1.4,2,2.6,3.4,3.7,4.4,3.4,9.2,6.6,12.9,10.8.7.7.6,1.9-.1,2.6-.8.7-2,.6-2.7-.2h0Z"/>
    <path class="st0" d="M104.5,69.7c-8.8-2.4-17.9-.7-25.2,4.8h-.1c.5-.3.9-1.4.4-2.1-.2-.3-.8-.6-.6-.6,1.5.8,2.8,2.1,4,3.3,3.9,4.2,6.9,8.8,9.8,13.6,4.2,7.7,9.4,15.3,17.5,19,3.1,1.4,6.5,2.2,9.9,2.4,1,0,1.8.9,1.7,1.9,0,1-.9,1.8-1.9,1.7-3.9-.2-7.7-1.1-11.3-2.8-7-3.2-12.4-9.2-16.3-15.7-3.6-6.2-7.1-12.7-12-17.9-.9-1-1.9-1.9-3-2.6h0s-.5-.3-.7-.6c-.5-.7-.2-1.9.4-2.2h0l.6-.4c4.7-3.4,10.1-5.9,15.9-6.4,3.9-.3,7.8.1,11.5,1.1,1,.3,1.5,1.3,1.3,2.2-.3.9-1.2,1.5-2.2,1.3h.3Z"/>
    <path class="st0" d="M269.7,66.2c7.4-2.2,15.7-1.5,22.5,2.2,1.9,1,3.8,2.2,5.5,3.5.2.1.7.7.7,1.1s0,.7-.3,1.1c-.2.3-.8.7-.7.6-.4.2-.8.5-1.2.8-5.9,5.4-9.7,12.8-13.8,19.7-5.7,10-15.6,18.1-27.5,18.5-2.4,0-2.6-3.4-.2-3.6,3.4-.2,6.8-1,9.9-2.4,6.4-2.9,11.2-8.3,14.8-14.3,1.8-3.1,3.7-6.4,5.7-9.4,3-4.3,6.2-9.3,10.9-12.2-1.3.7-.9,2.2-.4,2.6-4.4-3.1-9.5-5.4-14.9-5.8-3.4-.3-6.8.2-10.3,1-2.3.5-3.2-2.8-.9-3.5h.2Z"/>
  </g>
  <path class="st0" d="M333.1,101.6c-3.4,1.8-6.3,4.8-9.6,6.8-3.5,2.4-7.5,4.2-11.7,5.3-8.4,2-17.7.9-24.8-4.3-1-.7-.6-2.3.5-2.5,12.7-3.4,20.6-14.4,29.3-23.6,3-3.2,6.4-6.3,10.2-8.8,7.6-5.1,17.3-7.4,26.4-5.7,14.4,2.8,24.2,17.4,21,31.7-2.3,11.8-13.5,20.9-25.7,19.8-4.7-.3-9.5-1.9-13-5.3s-5.7-8.4-5.2-13.3,3-9.5,7.1-12.3c5.1-3.5,13.5-3.8,17,2,.7,1.2,2.1,4.8-.2,4.9-.5,0-1-.4-1.1-.9-.5-1.8-1.7-3.1-3.2-4-7.5-3.7-15.4,2.9-15.9,10.6-.4,5.8,3.6,11.3,9,13.2,17.3,6.1,32.3-10.6,26.7-27.5-6.1-17.5-26.6-19.5-40.6-10.1s-22.6,28.9-40.9,31.9l.5-2.5c1.5,1,3.4,1.7,5.1,2.3,9.2,3,19.5,1.1,27.5-4.3,2.5-1.6,4.9-3.6,7.4-5.3,1.3-.9,4.3-3.1,5.4-.6.4.9-.1,2-1.1,2.4h0Z"/>
  <path class="st0" d="M41.9,101.6c3.4,1.8,6.3,4.8,9.6,6.8,3.5,2.4,7.5,4.2,11.7,5.3,8.4,2,17.7.9,24.8-4.3,1-.7.6-2.3-.5-2.5-12.7-3.4-20.6-14.4-29.3-23.6-3-3.2-6.4-6.3-10.2-8.8-7.6-5.1-17.3-7.4-26.4-5.7-14.4,2.8-24.2,17.4-21,31.7,2.3,11.8,13.5,20.9,25.7,19.8,4.7-.3,9.5-1.9,13-5.3s5.7-8.4,5.2-13.3-3-9.5-7.1-12.3c-5.1-3.5-13.5-3.8-17,2-.7,1.2-2.1,4.8.2,4.9.5,0,1-.4,1.1-.9.5-1.8,1.7-3.1,3.2-4,7.5-3.7,15.4,2.9,15.9,10.6.4,5.8-3.6,11.3-9,13.2C14.5,121.3-.5,104.6,5.1,87.7c6.1-17.5,26.6-19.5,40.6-10.1,14,9.4,22.6,28.9,40.9,31.9l-.5-2.5c-1.5,1-3.4,1.7-5.1,2.3-9.2,3-19.5,1.1-27.5-4.3-2.5-1.6-4.9-3.6-7.4-5.3-1.3-.9-4.3-3.1-5.4-.6-.4.9.1,2,1.1,2.4h.1Z"/>
</svg>