<?xml version="1.0" encoding="UTF-8"?>
<svg id="Layer_1" xmlns="http://www.w3.org/2000/svg" version="1.1" viewBox="0 0 70 70">
  <!-- Generator: Adobe Illustrator 30.1.0, SVG Export Plug-In . SVG Version: 2.1.1 Build 136)  -->
  <defs>
    <style>
      .st0 {
        fill: #672000;
      }
    </style>
  </defs>
  <path class="st0" d="M58.8,7.8v54.4H14.6c-1,0-1.8-.3-2.4-1-.7-.7-1-1.5-1-2.4,0-1,.3-1.8,1-2.4s1.5-1,2.4-1h37.4V20.4c0-10.3.4-14,1.2-19.3,0,0-.5,0-1.2,0h0s-37.4,0-37.4,0c-2.8,0-5.2,1-7.2,3-2,2-3,4.4-3,7.2v47.6c0,2.8,1,5.2,3,7.2,2,2,4.4,3,7.2,3h51V7.8h-6.8ZM15.6,13.3h28.3v8.3H15.6v-8.3Z"/>
</svg>