<?xml version="1.0" encoding="UTF-8"?>
<svg id="Layer_1" xmlns="http://www.w3.org/2000/svg" version="1.1" viewBox="0 0 70 70">
  <!-- Generator: Adobe Illustrator 30.1.0, SVG Export Plug-In . SVG Version: 2.1.1 Build 136)  -->
  <defs>
    <style>
      .st0 {
        fill: #672000;
      }
    </style>
  </defs>
  <path class="st0" d="M26,67l-1-8c-.2-1.4-1-2.5-2.2-3.2s0,0,0,0c-1.2-.7-2.6-.8-3.9-.3l-7.5,3.1-8.8-15.2,6.5-4.9c1.1-.8,1.7-2.1,1.7-3.5s0,0,0,0c0-1.4-.6-2.6-1.7-3.5l-6.5-4.9,8.8-15.2,7.5,3.1c1.3.5,2.7.4,3.9-.3s0,0,0,0c1.2-.7,2-1.9,2.2-3.2l1-8h17.6l1,8c.2,1.4,1,2.6,2.2,3.2s0,0,0,0c1.2.7,2.6.8,3.9.3l7.4-3.1,8.8,15.2-6.5,4.9c-1.1.8-1.7,2.1-1.7,3.4s0,0,0,0c0,1.4.6,2.7,1.7,3.5l6.4,4.9-8.8,15.2-7.4-3.1c-1.3-.5-2.7-.4-3.9.2s0,0,0,0c-1.2.7-2,1.9-2.2,3.2l-1,8h-17.6ZM34.9,46.2c3.1,0,5.7-1.1,7.9-3.3s3.3-4.8,3.3-7.9c0-3.1-1.1-5.7-3.3-7.9-2.2-2.2-4.8-3.3-7.9-3.3s-5.8,1.1-8,3.3c-2.2,2.2-3.2,4.8-3.2,7.9,0,3.1,1.1,5.7,3.2,7.9,2.2,2.2,4.8,3.3,8,3.3"/>
</svg>