<?xml version="1.0" encoding="UTF-8"?>
<svg id="Layer_1" xmlns="http://www.w3.org/2000/svg" version="1.1" viewBox="0 0 70 70">
  <!-- Generator: Adobe Illustrator 30.1.0, SVG Export Plug-In . SVG Version: 2.1.1 Build 136)  -->
  <defs>
    <style>
      .st0 {
        fill: #672000;
      }
    </style>
  </defs>
  <path class="st0" d="M10.1,40.7c0-7.5,0-14-.7-19.5h13.6c-.5,3.7-.7,10.2-.7,19.5v2.4c0,7.4,0,13.9.7,19.5h-13.6c.5-3.8.7-9.7.7-19.5v-2.4Z"/>
  <path class="st0" d="M28.9,26.9c0-7.5,0-14-.7-19.5h13.6c-.5,3.7-.7,10.2-.7,19.5v16.1c0,7.4,0,13.9.7,19.5h-13.6c.5-3.8.7-9.7.7-19.5v-16.1Z"/>
  <path class="st0" d="M47.7,50.9c0-7.5,0-14-.7-19.5h13.6c-.5,3.7-.7,10.2-.7,19.5v-7.8c0,7.4,0,13.9.7,19.5h-13.6c.5-3.8.7-9.7.7-19.5v7.8Z"/>
</svg>