<?xml version="1.0" encoding="UTF-8"?>
<svg id="Layer_1" xmlns="http://www.w3.org/2000/svg" xmlns:xlink="http://www.w3.org/1999/xlink" version="1.1" viewBox="0 0 314.7 307.9">
  <!-- Generator: Adobe Illustrator 29.8.2, SVG Export Plug-In . SVG Version: 2.1.1 Build 3)  -->
  <defs>
    <style>
      .st0 {
        fill: #2b1517;
      }

      .st1 {
        fill: url(#linear-gradient);
      }

      .st2 {
        fill: #efddca;
      }

      .st3 {
        fill: #8c4b2f;
      }

      .st4 {
        fill: #d3b89f;
      }

      .st5 {
        fill: #d3a57c;
      }

      .st6 {
        fill: #a46a44;
      }

      .st7 {
        fill: #fff;
      }

      .st8 {
        fill: #d2a57c;
      }
    </style>
    <linearGradient id="linear-gradient" x1="157.8" y1="205.7" x2="157.8" y2="-82.7" gradientUnits="userSpaceOnUse">
      <stop offset="0" stop-color="#ff8a42"/>
      <stop offset="1" stop-color="#ffd25f"/>
    </linearGradient>
  </defs>
  <path class="st1" d="M83.5,295.2h148.7c49.2-26.5,82.6-78.5,82.6-138.2C314.7,70.3,244.5,0,157.8,0S.9,70.3.9,156.9s33.4,111.7,82.6,138.2Z"/>
  <g>
    <path class="st7" d="M293.7,254.8c-.1-1.2-3.9-29.4-24.7-71.1-26.7-53.3-75.2-75.3-114.5-88.6-20.8-7-24.3-14.9-31.4-30.7-2.5-5.5-5.3-11.7-9.3-19-18.8-34.1-46.8-31.4-58-28.6-15.4,3.8-25.6,14.3-30.7,20.9-9.9,4.7-19.5,11.1-19.7,14.9,0,2.8,8.6,1.2,22.6,8.3,10.6,10.2,14.3,16.2,15.6,24.2.5,3.4.6,7.4.2,12.5-.2,2.5-.5,5.4-.8,8.5-2,20.9-4.9,52.5,3.3,80.3,11.3,38.2,40.9,68.1,81.1,82.1,15.1,5.2,30.4,7.3,45.3,7.3,28.5,0,55.4-7.5,75.7-14.2,22.5-7.5,40.8-2.8,40.9-2.7l5,1.4-.6-5.2v-.3Z"/>
    <path class="st7" d="M172.7,281.1c-16.8,0-32.6-2.5-47.1-7.6-41.9-14.5-72.7-45.8-84.5-85.7-8.5-28.9-5.5-61.1-3.5-82.4.3-2.9.6-5.9.8-8.4.4-4.7.3-8.2,0-11.2-.9-5.8-3.2-10.7-13.3-20.5-6.7-3.3-12-4.4-15.5-5.1C5.5,59.4-.2,58.2,0,52.3c.3-7.2,11.6-14.2,21.6-19.1,5.5-6.8,16.5-17.8,32.9-21.8,12.4-3.1,43.5-6.2,64.1,31.3,4.1,7.5,7,13.8,9.5,19.4,6.8,15.3,9.7,21.6,28.2,27.8,40.3,13.6,90.2,36.2,117.7,91.3,21.3,42.5,25.1,71.7,25.2,72.9h0l1.7,13.3-13-3.5c-.1,0-17.1-4.3-37.8,2.6-18.7,6.2-47,14.5-77.4,14.5h0ZM14.6,50.1c4,.9,9.5,2.5,15.9,5.8l.7.4.6.6c11.4,11,15.7,17.9,17.2,27.3.6,3.8.7,8.2.2,13.7-.2,2.6-.5,5.6-.8,8.6-1.9,20.5-4.8,51.4,3.1,78.2,10.8,36.5,39.1,65.1,77.6,78.4,13.3,4.6,28,7,43.5,7,28.8,0,56-8,73.9-13.9,18.9-6.3,34.8-4.6,41.2-3.4-1.4-8.1-6.8-32.7-23.7-66.5-25.8-51.5-73.1-72.9-111.4-85.8-23.1-7.8-27.4-17.5-34.7-33.7-2.4-5.4-5.2-11.5-9.1-18.6-16.3-29.7-39.5-29-51.8-25.9-14,3.5-23.3,13.3-27.6,18.9l-.8,1-1.2.6c-5.8,2.7-10.1,5.4-12.9,7.5v-.2Z"/>
  </g>
  <g>
    <path class="st5" d="M24.4,44.8c-1.4,3,10.9-19.4,32.2-24.7,21.3-5.3,39.4.3,54.1,26.9,15.6,28.4,12.9,41.4,42.6,51.4,43.4,14.6,87.8,37.5,112.5,86.8,20.8,41.6,24.4,70,24.4,70,0,0-19.1-5.2-43,2.8-23.9,8-73,22.8-118.7,7-44.7-15.5-69.6-48.3-78.9-79.7s-3.9-68.8-2.4-87.6c1.5-18.9-2.8-26.6-20.2-42.7-6.2-5.8-2.7-10.2-2.7-10.2h.1Z"/>
    <path class="st6" d="M69.9,92.9s4.1,55.5,39.3,91.7c0,0-1-2,0,0,24,23,51,44,84,48,28.7,4,63.2,6.7,90.2-5.1-3.7-11.4-9.2-25.8-17.4-42.3-24.7-49.4-69.1-72.2-112.5-86.8-29.8-10-27-23-42.6-51.4-2.6-4.7-3,8.8-6,5.4-25.4-16.8-32.5,23.1-34.9,40.5h0Z"/>
    <path class="st6" d="M62.4,89.6c-3.2,2.9-6.4,5.9-9.5,9s-3.2,3.2-4.7,4.8c-.6.6-1.4,1.3-2,2,1.2,5.4,2.9,8.7,2.9,8.7,20-1.5,36.4-21.6,29.6-36.9-5.9,3.5-11.2,7.8-16.2,12.3h-.1Z"/>
    <path class="st7" d="M32,54.6s29.1-5.4,41.5,9.1c12.7,14.8-3.2,39.3-24.8,42.2,0,0,4.4-19.2-4.1-31.3-8.6-12.1-12.6-20-12.6-20Z"/>
    <path class="st6" d="M48.4,86.6s14.6-.9,19.4-16.6c0,0,4.4,18.2-17.5,25.5-6,.5-1.9-8.9-1.9-8.9Z"/>
    <path class="st7" d="M33.3,36.2s38.8-22.6,78.9,16.6l13.5,29.5s-25.7-33.9-52.8-41.2c-25.6-6.9-52.9,3.7-49.1,2.2,0,0,9.5-7.1,9.5-7.1Z"/>
    <path class="st0" d="M172.7,275.6c-14.9,0-30.2-2-45.3-7.3-40.2-13.9-69.8-43.8-81.1-82.1-8.2-27.8-5.3-59.4-3.3-80.3.3-3.1.6-6,.8-8.5.4-5.1.3-9.1-.2-12.5-1.3-8.8-5.8-15.2-18.9-27.4-6.6-6.1-5.1-12.1-3.2-14.7,1.4-2.4,12.8-20.8,34.3-26.2,11.2-2.8,39.2-5.5,58,28.6,4,7.3,6.8,13.5,9.3,19,7.1,15.8,10.6,23.7,31.4,30.7,39.3,13.2,87.9,35.3,114.5,88.6,20.9,41.7,24.6,69.9,24.7,71.1l.6,5.2-5-1.4c-.2,0-18.4-4.8-40.9,2.7-20.3,6.8-47.2,14.2-75.7,14.2v.3ZM27.2,47c-.3.5-1,2.4,2.3,5.5,12.6,11.6,19.3,19.7,21.1,31.4.6,4,.7,8.4.2,14.1-.2,2.6-.5,5.5-.8,8.6-1.9,20.4-4.8,51.1,3,77.7,10.7,36,38.6,64.2,76.7,77.4,42,14.5,86.6,3,116.5-7,17.4-5.8,32.2-4.9,39.8-3.8-1.9-9.7-7.8-33.3-23.2-64-25.5-51-72.5-72.3-110.5-85.1-23.7-8-28.4-18.5-35.6-34.5-2.4-5.4-5.1-11.5-9-18.5-15.8-28.8-38.2-28.2-50.1-25.2-19.5,4.8-29.9,22.8-30,23l-.3.4h0ZM24.4,44.8h0Z"/>
    <path class="st0" d="M34.3,33.9c-12.1,4.1-28.6,13.7-28.8,18.6s9.6,1,25.1,9.6c0,0,3.9-4.8,1.3-7.5s-3.9-8.1-.8-12.7,3.1-8,3.1-8h0Z"/>
    <ellipse class="st0" cx="56.8" cy="46.3" rx="8.8" ry="9"/>
    <ellipse class="st7" cx="59.4" cy="41.9" rx="2" ry="2.5" transform="translate(-12.2 54.3) rotate(-45)"/>
    <circle class="st6" cx="73.6" cy="56.4" r="2.5"/>
    <circle class="st8" cx="86.7" cy="59.2" r="2.5"/>
    <circle class="st8" cx="86" cy="80" r="2.7"/>
    <circle class="st8" cx="82.7" cy="90.5" r="2.8"/>
    <circle class="st8" cx="94.5" cy="82.7" r="2.8"/>
    <circle class="st8" cx="77.9" cy="99.8" r="2.8"/>
    <circle class="st8" cx="88.5" cy="103.5" r="3"/>
    <ellipse class="st8" cx="85.9" cy="123.5" rx="3.2" ry="4.2" transform="translate(-34.1 32.8) rotate(-18.1)"/>
    <ellipse class="st8" cx="94.8" cy="114" rx="3.3" ry="3.9" transform="translate(-39.4 51) rotate(-25.1)"/>
    <ellipse class="st8" cx="115.2" cy="95.9" rx="3" ry="3.7" transform="translate(-34.7 97) rotate(-40.2)"/>
    <ellipse class="st8" cx="101.5" cy="103" rx="3.2" ry="3.8" transform="translate(-40.6 76.4) rotate(-34.8)"/>
    <circle class="st8" cx="79.8" cy="111.2" r="3"/>
    <circle class="st6" cx="66" cy="116.5" r="2.5"/>
    <ellipse class="st6" cx="69.7" cy="129.4" rx="2.8" ry="3"/>
    <ellipse class="st6" cx="58.1" cy="126.2" rx="2.6" ry="2.9"/>
    <ellipse class="st6" cx="54.8" cy="137.1" rx="2.8" ry="3.2"/>
    <ellipse class="st6" cx="55.7" cy="153.2" rx="3" ry="3.6"/>
    <ellipse class="st6" cx="64.9" cy="141.9" rx="3" ry="3.5" transform="translate(-17 9.1) rotate(-7.1)"/>
    <ellipse class="st6" cx="58.2" cy="169.1" rx="3" ry="3.5" transform="translate(-23.3 9.9) rotate(-8.1)"/>
    <ellipse class="st6" cx="61.8" cy="182.5" rx="2.5" ry="2.9" transform="translate(-38.3 17.9) rotate(-12.6)"/>
    <ellipse class="st6" cx="68.5" cy="158.2" rx="3.2" ry="3.8" transform="translate(-26.2 14.1) rotate(-9.9)"/>
    <ellipse class="st6" cx="71" cy="173" rx="3" ry="3.4" transform="translate(-23.9 11.9) rotate(-8.2)"/>
    <ellipse class="st6" cx="76.6" cy="145.2" rx="3" ry="3.4" transform="translate(-22 13.9) rotate(-9.1)"/>
    <ellipse class="st6" cx="82.4" cy="161.6" rx="3.3" ry="3.8" transform="translate(-43 30.5) rotate(-16.7)"/>
    <ellipse class="st6" cx="83.4" cy="176.4" rx="3.1" ry="3.7" transform="translate(-50.2 34.2) rotate(-17.9)"/>
    <ellipse class="st6" cx="96" cy="197" rx="3.5" ry="4.4" transform="translate(-81 67.8) rotate(-27.9)"/>
    <ellipse class="st6" cx="95" cy="214.3" rx="3.4" ry="4.3" transform="translate(-96.6 79.2) rotate(-30.9)"/>
    <ellipse class="st6" cx="110.5" cy="201" rx="3.4" ry="4.3" transform="translate(-99.9 109.6) rotate(-37.7)"/>
    <ellipse class="st6" cx="128.2" cy="218.2" rx="3.6" ry="4.5" transform="translate(-116.5 153.7) rotate(-44.8)"/>
    <ellipse class="st6" cx="112.1" cy="216.5" rx="3.7" ry="4.7" transform="translate(-99.4 95.2) rotate(-32.8)"/>
    <ellipse class="st6" cx="132.1" cy="233.3" rx="3.6" ry="4.6" transform="translate(-136 235.2) rotate(-60.9)"/>
    <ellipse class="st6" cx="147.9" cy="230" rx="3.7" ry="4.7" transform="translate(-124.3 256.4) rotate(-62.8)"/>
    <ellipse class="st6" cx="171.5" cy="238.2" rx="3.2" ry="4.1" transform="translate(-99.8 350.3) rotate(-76.7)"/>
    <ellipse class="st6" cx="190.3" cy="243" rx="2.9" ry="3.7" transform="translate(-78.4 394.9) rotate(-81.4)"/>
    <ellipse class="st6" cx="202.1" cy="251" rx="2.8" ry="3.5" transform="translate(-63.7 433.2) rotate(-85.6)"/>
    <ellipse class="st6" cx="214.3" cy="244.5" rx="2.5" ry="3.1" transform="translate(-30.6 458.4) rotate(-89.9)"/>
    <ellipse class="st6" cx="177.4" cy="250.5" rx="3.2" ry="4.1" transform="translate(-95.4 391.3) rotate(-82)"/>
    <ellipse class="st6" cx="156.4" cy="244.2" rx="3.6" ry="4.6" transform="translate(-124.3 317) rotate(-71.9)"/>
    <ellipse class="st6" cx="82" cy="192.6" rx="3.5" ry="4.3" transform="translate(-68.5 47.1) rotate(-22.9)"/>
    <circle class="st8" cx="103.8" cy="90.7" r="3"/>
    <circle class="st8" cx="92.6" cy="92.9" r="2.8"/>
    <circle class="st8" cx="105.2" cy="79.8" r="2.8"/>
    <circle class="st8" cx="115.4" cy="84.5" r="2.8"/>
    <circle class="st8" cx="86" cy="69.3" r="2.5"/>
    <circle class="st8" cx="95" cy="73.2" r="2.7"/>
    <circle class="st8" cx="104.6" cy="69.4" r="2.5"/>
    <circle class="st8" cx="95.1" cy="63" r="2.5"/>
    <circle class="st6" cx="78.9" cy="49.3" r="2.4"/>
    <circle class="st6" cx="70.5" cy="49" r="2.4"/>
    <path class="st8" d="M112.3,107.6s-1.3,10.9,10,14.2c0,0-3.4-9.8-10-14.2Z"/>
    <path class="st8" d="M124.3,97.6s-.6,11.2,9.9,11.6c0,0-4.6-8.9-9.9-11.6Z"/>
    <path class="st8" d="M101.5,121.7s-.4,11.2,7.1,16.4c0,0,2.8-7.6-7.1-16.4Z"/>
    <path class="st8" d="M90.2,131.9s-2,11.7,7,18.6c0,0,1.6-10-7-18.6Z"/>
    <path class="st8" d="M129.5,122.5s2.1,17.1,22.6,23.6c0,0-14.5-18.8-22.6-23.6Z"/>
    <path class="st8" d="M115.5,129.4s-1.5,20,19.2,24c0,0-14.9-15.2-19.2-24Z"/>
    <path class="st8" d="M106.3,151.2s4.2,12.2,16.5,23.6c0,0-17.4.4-16.5-23.6Z"/>
    <path class="st8" d="M120.9,154.1s5.1,18.4,22.8,17.3c0,0-12.5-7.4-22.8-17.3Z"/>
    <path class="st8" d="M127,181s.8,16,18.6,15.6c0,0-11.8-8.8-18.6-15.6Z"/>
    <path class="st8" d="M157.6,203.4s6.7,14.5,21.9,11.1c0,0-10.5-6.9-21.9-11.1Z"/>
    <path class="st8" d="M195.5,218.6s9.4,10.2,26.1,6.1c0,0-11.7-5.2-26.1-6.1Z"/>
    <path class="st8" d="M140.3,151.8s3.7,12.4,20.1,16.2c0,0-4-9.6-20.1-16.2Z"/>
    <path class="st8" d="M144.8,122s12.4,16.8,29.7,20.1c0,0-10.2-15.1-29.7-20.1Z"/>
    <path class="st8" d="M140.6,110.4s7.6,7.1,21.2,7.6c0,0-4.7-8.7-21.2-7.6Z"/>
    <path class="st8" d="M169.8,118.5s4.7,8.6,17.9,13c13.2,4.4,14.5,5.2,14.5,5.2,0,0-9-13.4-32.3-18.2h0Z"/>
    <path class="st8" d="M162.1,148.1s5.6,16.1,23,22.9c0,0-7.2-14.3-23-22.9Z"/>
    <path class="st8" d="M186.6,143.5s11.4,13.1,27.3,21c0,0-6.2-15.5-27.3-21Z"/>
    <path class="st8" d="M209.7,142.8s14.3,12.5,23.3,24.2c0,0-.4-19.3-23.3-24.2Z"/>
    <path class="st8" d="M190.8,162.6s7.6,14.1,23.9,20.4c0,0-5.8-13.1-23.9-20.4Z"/>
    <path class="st8" d="M168.6,175.8s4.7,11.2,19.1,16.4c0,0-3-11.2-19.1-16.4Z"/>
    <path class="st8" d="M198.9,188.3s4,11.4,21.6,14.8c0,0-4.9-10.5-21.6-14.8Z"/>
    <path class="st8" d="M219.5,175.4s5.6,9.8,19.5,21.6c0,0,.6-15.6-19.5-21.6Z"/>
    <path class="st8" d="M241.2,170.7s4,11.3,11.8,23.8c0,0,4.6-15.1-11.8-23.8Z"/>
    <path class="st8" d="M145.8,177.2s7.9,15.5,25.5,16.7c0,0-11.5-13.5-25.5-16.7Z"/>
    <path class="st8" d="M183.4,200.8s4.9,8,23.5,8.9c0,0-6.4-8.9-23.5-8.9Z"/>
    <path class="st8" d="M217.6,212.8s13.4,10.8,27.5,6.9c0,0-10.4-8.3-27.5-6.9Z"/>
    <path class="st8" d="M238.3,204.2s9,10.6,20.3,13.8c0,0-6.3-13.8-20.3-13.8Z"/>
    <path class="st8" d="M258.3,199.5s.5,8,8.8,15.8c0,0,1.7-10.7-8.8-15.8Z"/>
  </g>
  <g>
    <path class="st2" d="M19.8,280.5s-7.7-26.2-.8-46.7c1.7-5.2,4.7-9.8,8.7-13.6,6.9-6.5,18.9-17.6,26.8-24.4s9-6,14.3-7.2c10.1-2.3,28.6-6.3,42.1-7.9,6-.7,12.1.2,17.6,2.6,10.1,4.4,28.2,12.4,41.4,18.7s10.7,7.1,14.1,12.6c1.6,2.6,3,5,3.6,6.2l10.9,64.2-178.7-4.4Z"/>
    <path class="st4" d="M19.7,274.7c1-9.7,3.1-25.7,7.3-38.2,1.3-3.9,3.6-7.4,6.5-10.2,6.5-6.1,18.6-17.4,26.5-24.2,3-2.6,6.7-4.5,10.7-5.4,9.7-2.2,28.1-6.2,41.2-7.8,1-.1,2-.2,3-.2,3.5,0,6.8,1,10.1,2.1,40.1,13.4,53.9,31.7,54.4,32.4l9,53.2c-66.3,3.2-129.4,5.2-168.8-1.8Z"/>
    <path class="st2" d="M121.7,186l-50.9,19.9c-3.5,1.4-6,4.2-6.8,7.6l-7.7,32.4c-.8,3.3-3.1,6.1-6.3,7.7l-28.3,20.3c-6.9-12-8.1-25.5-2-41l31-31.3,14.9-10.5,44.3-9.5,11.9,4.4Z"/>
    <path class="st2" d="M154.9,277.4c-.2.7-3.3-17.5,3.2-33.3s6.9-10.8,12.5-13.9c14.4-7.8,32.8-14,45.1-17.1,5.1-1.3,10.5-1.4,15.6-.2,8.9,2,22.2,5.5,33.6,9.4,3.6,1.2,6.9,3.1,9.8,5.6,4.3,3.7,11.3,9.6,16.8,14.3s7.2,8.1,8.9,13.2-3,18.4-1.6,23.3l-10.3,11.1-138.4.9,4.6-13.4Z"/>
    <path class="st4" d="M154.9,277.4c3.7-11.3,7.6-21.9,11-30.1,1.7-4.1,4.8-7.6,8.8-9.7,13.8-7.5,31.3-13.3,43.1-16.3,2-.5,4.1-.8,6.2-.8s3.7.2,5.5.6c7.8,1.7,38.7,11.2,56.6,27.5s5.2,5.9,6.5,9.6c1.8,5.3-.3,10.4-1.2,18.8l6,3.8-140.8,1.5-1.6-5Z"/>
    <path class="st2" d="M223,217.7l-24.1,13.4c-2.8,1.6-4.9,4.1-5.7,7.2l-5.1,18.1c-.7,2.4-2.1,4.5-4,6.2l-29.3,16.3,6.6-33.5,10.5-13.9,34.3-13.9,16.9.3Z"/>
    <path class="st0" d="M154.7,283.6c-1.1,0-2.1-.5-2.8-1.4-1.3-1.8-5.9-20.9,3.1-39.7,3.3-6.9,8.2-12.2,14-15.4,14.7-8,33.4-14.2,45.9-17.4,5.6-1.4,11.6-1.5,17.2-.3,9.5,2.1,42.1,10.5,62,30.3,5,4.9,8,9.5,9.7,14.6,1.8,5.4,1,16.3-1.9,24.5-.6,1.8-2.6,2.8-4.5,2.1-1.8-.6-2.8-2.6-2.1-4.5,2.7-7.7,2.9-16.8,1.9-19.9-1.3-3.9-3.9-7.7-8.1-11.8-18.6-18.5-49.6-26.4-58.6-28.4-4.6-1-9.4-.9-14,.2-12.1,3.1-30.1,9.1-44.3,16.8-4.6,2.5-8.3,6.6-11,12.3-7.5,15.7-4,30.8-3.5,32.8.4.8.6,1.7.3,2.6-.4,1.3-1.4,2.2-2.7,2.5-.2,0-.4,0-.6,0Z"/>
    <path class="st0" d="M23.6,287.1c-.8,0-1.7-.3-2.3-.9-10.3-9.2-12.7-32.2-5.6-53.4,1.9-5.7,5.3-10.9,9.6-15,6.6-6.2,18.9-17.6,26.9-24.5,4.5-3.9,10-6.6,15.8-7.9,10-2.3,28.7-6.3,42.4-8,7.1-.9,14,1,19.1,2.8,49.5,16.7,60,37,61.1,39.3.8,1.8,0,3.8-1.7,4.6s-3.8,0-4.6-1.7c0-.2-9.4-19.5-57-35.5-4.7-1.6-10.3-3.1-16-2.4-13.4,1.6-31.9,5.6-41.7,7.9-4.7,1.1-9.2,3.3-12.8,6.4-8,6.8-20.1,18.2-26.7,24.3-3.5,3.3-6.2,7.5-7.8,12.2-6.9,20.6-3.6,39.6,3.6,46,1.4,1.3,1.6,3.5.3,4.9-.7.8-1.6,1.2-2.6,1.2Z"/>
    <g>
      <path class="st3" d="M43.3,294.3h233.7c10.2,0,19.1-6.8,21.7-16.6s0-.2,0-.3c-17.4-2.7-26.3,1.4-44.8,1.5s-24.8-8.1-55.9-4.9c-20.5,2.1-23.1,6.8-46.9,4.8s-20.2-5.2-37-4.8c-13.1.3-25.7,5.1-44.9,4.7s-28.4-6.8-51.4-4.1c1.1,3.2,7.4,19.5,25.4,19.8Z"/>
      <path class="st0" d="M276.9,297.8H43.2c-15.6-.3-25-11.6-28.7-22.2-.3-1-.2-2.1.4-3,.6-.9,1.5-1.5,2.6-1.6,14.8-1.7,25.5.2,34.9,2,5.7,1,11.1,2,16.9,2.1,10.8.2,19.6-1.3,27.4-2.6,5.9-1,11.5-2,17.3-2.1,10.9-.3,18.9,1.4,25.9,2.9,4,.8,7.7,1.6,11.4,1.9,14.5,1.2,20.8-.1,28.6-1.9,4.7-1,9.9-2.2,17.6-3,20-2,31.5.6,40.7,2.7,5.4,1.2,10,2.3,15.4,2.3h.2c7.2,0,12.8-.7,18.3-1.3,8.3-.9,16.1-1.8,27-.2,1,.1,1.8.7,2.4,1.5.5.8.7,1.8.5,2.8v.4c-3.1,11.3-13.4,19.2-25.2,19.2ZM43.3,290.8h233.6c7.3,0,13.9-4.2,17-10.5-7.9-.8-14,0-20.9.7-5.4.6-11.5,1.3-19.1,1.3h-.2c-6.2,0-11.4-1.2-16.9-2.4-9.2-2.1-19.5-4.4-38.4-2.5-7.3.7-12.2,1.8-16.9,2.8-8.1,1.8-15.1,3.3-30.7,2-4.2-.3-8.1-1.2-12.3-2.1-7-1.5-14.2-3-24.3-2.8-5.3.1-10.6,1-16.3,2-8.1,1.4-17.3,3-28.7,2.7-6.4-.1-12.1-1.2-18.1-2.3-8.3-1.5-16.8-3.1-28.1-2.3,2.8,5.4,8.9,13,20.3,13.2Z"/>
    </g>
  </g>
</svg>