<svg width="54" height="48" viewBox="0 0 54 48" fill="none" xmlns="http://www.w3.org/2000/svg">
<path d="M30.7358 0.00930524C17.1925 -0.363956 6.0972 10.5406 6.0972 24.0047H1.33446C0.13712 24.0047 -0.448245 25.4444 0.403195 26.2709L7.82669 33.7361C8.35884 34.2693 9.18367 34.2693 9.71582 33.7361L17.1393 26.2709C17.9641 25.4444 17.3788 24.0047 16.1814 24.0047H11.4187C11.4187 13.6067 19.8799 5.2083 30.31 5.3416C40.208 5.47491 48.5362 13.82 48.6692 23.738C48.8022 34.1627 40.4209 42.6677 30.044 42.6677C25.7601 42.6677 21.7956 41.2013 18.6559 38.7218C17.5916 37.8953 16.1016 37.9753 15.1438 38.9351C14.0262 40.0549 14.1061 41.9478 15.3566 42.9077C19.401 46.107 24.483 48 30.044 48C43.4807 48 54.3632 36.8822 53.9907 23.3115C53.6448 10.8072 43.2147 0.355905 30.7358 0.00930524ZM29.3788 13.3401C28.2879 13.3401 27.3832 14.2465 27.3832 15.3397V25.1511C27.3832 26.0842 27.8887 26.9641 28.687 27.444L36.9885 32.3764C37.9464 32.9363 39.1703 32.6163 39.7291 31.6832C40.2878 30.7234 39.9686 29.4969 39.0373 28.937L31.3743 24.3779V15.313C31.3743 14.2465 30.4697 13.3401 29.3788 13.3401Z" fill="#672000"/>
</svg>
