<?xml version="1.0" encoding="UTF-8"?>
<svg id="Layer_1" data-name="Layer 1" xmlns="http://www.w3.org/2000/svg" xmlns:xlink="http://www.w3.org/1999/xlink" viewBox="0 0 323.66 300.6">
  <defs>
    <style>
      .cls-1 {
        fill: #c68460;
      }

      .cls-2 {
        fill: #ffecd9;
      }

      .cls-3 {
        fill: #a35a3a;
      }

      .cls-4 {
        fill: url(#linear-gradient);
      }

      .cls-5 {
        fill: #efddca;
      }

      .cls-6 {
        fill: #8c4b2f;
      }

      .cls-7 {
        fill: #d3b89f;
      }

      .cls-8 {
        fill: #490500;
      }

      .cls-9, .cls-10 {
        fill: #fff;
      }

      .cls-10 {
        stroke: #fff;
        stroke-miterlimit: 10;
        stroke-width: 10px;
      }

      .cls-11 {
        fill: #d8a377;
      }
    </style>
    <linearGradient id="linear-gradient" x1="161.83" y1="198.41" x2="161.83" y2="-79.73" gradientUnits="userSpaceOnUse">
      <stop offset="0" stop-color="#ff8a42"/>
      <stop offset="1" stop-color="#ffd25f"/>
    </linearGradient>
  </defs>
  <path class="cls-4" d="M56.59,284.73h210.48c34.63-29.68,56.59-73.72,56.59-122.9C323.66,72.45,251.2,0,161.83,0S0,72.45,0,161.83c0,49.18,21.96,93.22,56.59,122.9Z"/>
  <path class="cls-10" d="M297.15,258.22c-2.63-16.59-7.92-32.59-14.16-48.11-22.97-59.87-61.37-89.41-120.95-109.54-9.26-2.95-19.41-6.72-25.61-14.1-5.22-5.99-8.09-13.77-11.44-21.03-3.44-7.61-6.94-15.33-11.53-22.35-9.35-14.84-25.62-25.13-43.55-24.38-17.3.24-30.76,8.24-37.4,22.07-8.56,4.08-16.89,9.51-18.34,13.54-.42,1.17,5.22,2.53,12.55,5.44,1.73.69,3.8,1.45,5.97,2.6,3.83,2.02,6.91,5.18,9.11,8.91,4.39,7.43,6.69,16.05,6.41,24.74-.36,8.7-1.68,17.73-2.31,26.52-1.79,22.45-2.06,45.64,4.61,67.43,12.1,39.69,45.8,70.53,85.14,82.37,37.32,11.43,77.27,4.7,113.48-7.22,12.2-4.38,25.37-6.35,38.28-4.82,3.41.31,7.02,1.27,10.34,2.16,0,0-.58-4.21-.58-4.21Z"/>
  <g>
    <g>
      <path class="cls-11" d="M32.67,48.25c-.07.17-.07.18,0,0h0Z"/>
      <path class="cls-11" d="M269.95,188.58c-24.69-49.38-69.11-72.22-112.53-86.84-28.47-9.59-27.23-21.92-40.73-47.8-23.4-1.75-47.05-1.12-70.08-1.12-4.75-.4-9.66-1.11-14.66-1.95-.14,1.84.32,4.46,2.83,7.45,13.51,16.1,17.32,23.78,15.79,42.68-1.52,18.74-7.17,56.12,2.49,87.57,9.66,31.46,34.81,64.24,79.56,79.75,45.71,15.84,94.81,1,118.74-6.97,23.92-7.97,42.98-2.77,42.98-2.77,0,0-3.54-28.35-24.37-70Z"/>
      <path class="cls-11" d="M116.69,53.94c-.61-1.17-1.24-2.36-1.92-3.59-14.62-26.58-36.18-32.34-54.05-27.91-19.07,4.73-27.34,24.03-28.05,25.82-.07.18-.07.17,0,0,.01-.04.03-.07.05-.12,0,0-.64,1.03-.76,2.74,5,.84,9.91,1.55,14.66,1.95,23.02,0,46.68-.63,70.08,1.12Z"/>
      <path class="cls-3" d="M73.93,96.18s4.14,55.53,39.26,91.75c0,0-1-2,0,0,24,23,51,44,84,48,28.75,3.99,64.42,10.09,91.4-1.71-3.68-11.38-10.4-29.16-18.64-45.65-24.69-49.38-69.11-72.22-112.53-86.84-29.76-10.02-24.83-18.37-40.43-46.73-2.57-4.67-43.14-9.68-46.08-13.07-25.4-16.84,5.39,36.86,3.02,54.24Z"/>
      <path class="cls-3" d="M65.81,93.15c-3.23,2.94-6.86,5.95-10.09,9.03-1.65,1.58-3.29,3.17-4.92,4.77-.58.57-1.43,1.25-2.1,1.99,1.22,5.4,2.98,8.75,2.98,8.75,20.82-1.46,37.15-21.57,30.33-36.88-5.85,3.48-11.18,7.76-16.21,12.34Z"/>
      <path class="cls-2" d="M33.99,52.87s10.95,6.2,19.49-4.14c2.73.77,6.45-.15,9.89-.3s12.37,3.84,16.84,15.88c7.53,20.31-5.85,42-28.24,44.96,0,0,4.6-19.2-4.29-31.31-8.89-12.11-13.69-25.09-13.69-25.09Z"/>
      <path class="cls-3" d="M51.71,89.79s16.84-1.77,21.86-16.61c0,0,2.33,19.94-19.95,25.55-9.98,2.52-1.9-8.94-1.9-8.94Z"/>
      <path class="cls-2" d="M37.01,44.82s32.12-32.12,78.2,8.86c0,0,9.3,9.08,8.64,19.72-24.15-5.98-33.67-31.9-62.25-25.7-5.03,1.09-10.96,5.36-14.92,6.05-9.05,1.6-16.03-6.38-14.49-7.18l4.82-1.76Z"/>
      <path class="cls-7" d="M38.51,39.32c-8.15,3.02-22.28,10.48-22.75,14.73-.2,1.79,4.57,2.22,11,4.77,2.93,1.16,6.74,2.64,10.36,6.23,0,0,2.93-8.39,1.41-10.93-4.98-8.28-.02-14.8-.02-14.8Z"/>
      <ellipse class="cls-8" cx="58.78" cy="49.62" rx="8.25" ry="8.46"/>
      <ellipse class="cls-9" cx="61.12" cy="46.55" rx="2.18" ry="2.23"/>
      <circle class="cls-1" cx="90.76" cy="62.51" r="2.5"/>
      <circle class="cls-1" cx="90.03" cy="83.33" r="2.65"/>
      <circle class="cls-1" cx="86.78" cy="93.82" r="2.75"/>
      <circle class="cls-1" cx="98.59" cy="85.99" r="2.75"/>
      <circle class="cls-1" cx="81.9" cy="103.12" r="2.75"/>
      <circle class="cls-1" cx="92.54" cy="106.82" r="3"/>
      <ellipse class="cls-1" cx="89.88" cy="126.93" rx="3.25" ry="4.17" transform="translate(-34.93 34.13) rotate(-18.06)"/>
      <ellipse class="cls-1" cx="98.89" cy="117.25" rx="3.25" ry="3.9" transform="translate(-40.45 53.14) rotate(-25.15)"/>
      <ellipse class="cls-1" cx="119.19" cy="99.06" rx="3" ry="3.66" transform="translate(-35.79 100.38) rotate(-40.22)"/>
      <ellipse class="cls-1" cx="105.53" cy="106.27" rx="3.15" ry="3.79" transform="translate(-41.78 79.25) rotate(-34.81)"/>
      <circle class="cls-1" cx="83.82" cy="114.49" r="3"/>
      <circle class="cls-3" cx="70.87" cy="120.66" r="2.75"/>
      <ellipse class="cls-3" cx="74.53" cy="134.73" rx="2.83" ry="3.11"/>
      <ellipse class="cls-3" cx="61.98" cy="130.32" rx="2.83" ry="2.97"/>
      <ellipse class="cls-3" cx="57.62" cy="142.59" rx="2.94" ry="3.28"/>
      <ellipse class="cls-3" cx="58.75" cy="158.77" rx="3.2" ry="3.67"/>
      <ellipse class="cls-3" cx="67.97" cy="146.89" rx="3.09" ry="3.59" transform="translate(-17.65 9.54) rotate(-7.11)"/>
      <ellipse class="cls-3" cx="61.5" cy="174.36" rx="3.2" ry="3.56" transform="translate(-31.87 14.78) rotate(-10.9)"/>
      <ellipse class="cls-3" cx="72.66" cy="164.19" rx="3.34" ry="3.95" transform="translate(-27.21 14.98) rotate(-9.92)"/>
      <ellipse class="cls-3" cx="74.89" cy="180.39" rx="3.34" ry="3.84" transform="translate(-18.09 8.62) rotate(-5.88)"/>
      <ellipse class="cls-3" cx="80.48" cy="150.95" rx="3.09" ry="3.49" transform="translate(-22.78 14.56) rotate(-9.06)"/>
      <ellipse class="cls-3" cx="86.64" cy="167.68" rx="3.34" ry="3.89" transform="translate(-44.62 32.05) rotate(-16.74)"/>
      <ellipse class="cls-3" cx="100.09" cy="200.27" rx="3.52" ry="4.45" transform="translate(-82.09 70.12) rotate(-27.9)"/>
      <ellipse class="cls-3" cx="99.09" cy="217.6" rx="3.37" ry="4.25" transform="translate(-97.7 81.8) rotate(-30.91)"/>
      <ellipse class="cls-3" cx="114.51" cy="204.38" rx="3.42" ry="4.32" transform="translate(-101.06 112.66) rotate(-37.69)"/>
      <ellipse class="cls-3" cx="132.22" cy="221.31" rx="3.6" ry="4.55" transform="translate(-117.59 157.62) rotate(-44.84)"/>
      <ellipse class="cls-3" cx="115.99" cy="219.99" rx="3.7" ry="4.67" transform="translate(-100.59 97.75) rotate(-32.76)"/>
      <ellipse class="cls-3" cx="136.01" cy="236.47" rx="3.61" ry="4.56" transform="translate(-136.75 240.46) rotate(-60.93)"/>
      <ellipse class="cls-3" cx="151.95" cy="233.32" rx="3.7" ry="4.67" transform="translate(-125.03 261.74) rotate(-62.78)"/>
      <ellipse class="cls-3" cx="175.62" cy="241.73" rx="3.21" ry="4.05" transform="translate(-100.09 356.87) rotate(-76.67)"/>
      <ellipse class="cls-3" cx="194.4" cy="246.47" rx="2.9" ry="3.66" transform="translate(-78.44 401.69) rotate(-81.37)"/>
      <ellipse class="cls-3" cx="206" cy="254.15" rx="2.77" ry="3.5" transform="translate(-63.06 440.25) rotate(-85.64)"/>
      <ellipse class="cls-3" cx="218.41" cy="247.94" rx="2.5" ry="3.11" transform="translate(-30.01 465.81) rotate(-89.88)"/>
      <ellipse class="cls-3" cx="181.49" cy="253.88" rx="3.21" ry="4.06" transform="translate(-95.24 398.16) rotate(-81.98)"/>
      <ellipse class="cls-3" cx="160.37" cy="247.46" rx="3.63" ry="4.58" transform="translate(-124.66 323.04) rotate(-71.9)"/>
      <ellipse class="cls-3" cx="86.08" cy="196.03" rx="3.51" ry="4.29" transform="translate(-69.43 48.88) rotate(-22.87)"/>
      <ellipse class="cls-1" cx="107.9" cy="94.27" rx="3" ry="3.23" transform="translate(-33.45 70.81) rotate(-31.72)"/>
      <circle class="cls-1" cx="96.63" cy="96.22" r="2.75"/>
      <circle class="cls-1" cx="109.22" cy="83.11" r="2.75"/>
      <ellipse class="cls-1" cx="119.3" cy="86.45" rx="2.75" ry="3.07" transform="translate(-26.07 110.41) rotate(-45.29)"/>
      <circle class="cls-1" cx="90.03" cy="72.55" r="2.5"/>
      <circle class="cls-1" cx="99.03" cy="76.5" r="2.7"/>
      <circle class="cls-1" cx="108.01" cy="72.62" r="2.5"/>
      <circle class="cls-1" cx="99.18" cy="66.35" r="2.5"/>
      <circle class="cls-1" cx="83.84" cy="56.03" r="2.24"/>
      <path class="cls-1" d="M117.48,110.57s-1.19,10.94,10.22,14.05c0,0-3.53-9.78-10.22-14.05Z"/>
      <path class="cls-1" d="M128.46,96.74s1.38,14.1,12.75,14.49c0,0-5.76-10.54-12.75-14.49Z"/>
      <path class="cls-1" d="M106.1,124.24s-.42,11.21,7.15,16.39c0,0,2.8-7.57-7.15-16.39Z"/>
      <path class="cls-1" d="M94.23,135.17s-1.99,11.67,7.01,18.61c0,0,1.62-9.97-7.01-18.61Z"/>
      <path class="cls-1" d="M134.93,126.78s.66,16.1,21.19,22.6c0,0-13.07-17.72-21.19-22.6Z"/>
      <path class="cls-1" d="M122.3,133.43s-3.32,17.8,17.28,22.45c0,0-13.29-13.59-17.28-22.45Z"/>
      <path class="cls-1" d="M108.34,154.11s4.21,12.18,16.54,23.56c0,0-17.43.37-16.54-23.56Z"/>
      <path class="cls-1" d="M123,156.84s5.13,18.39,22.77,17.26c0,0-12.47-7.43-22.77-17.26Z"/>
      <path class="cls-1" d="M131.05,184.25s.8,16.02,18.62,15.62c0,0-11.82-8.81-18.62-15.62Z"/>
      <path class="cls-1" d="M161.64,206.72s6.67,14.51,21.93,11.07c0,0-10.53-6.88-21.93-11.07Z"/>
      <path class="cls-1" d="M199.51,221.91s9.36,10.18,26.13,6.11c0,0-11.72-5.21-26.13-6.11Z"/>
      <path class="cls-1" d="M144.3,155.14s3.69,12.41,20.08,16.24c0,0-3.99-9.6-20.08-16.24Z"/>
      <path class="cls-1" d="M149.99,123.98s12.41,16.84,29.68,20.08c0,0-10.19-15.06-29.68-20.08Z"/>
      <path class="cls-1" d="M147.36,111.21s9.64,7.5,23.23,7.38c0,0-6.2-9.75-23.23-7.38Z"/>
      <path class="cls-1" d="M177.02,121.91s4.14,8.49,17.28,12.85c9.36,3.1,13,4.73,13,4.73,0,0-6.94-12.85-30.27-17.58Z"/>
      <path class="cls-1" d="M166.16,151.37s5.61,16.1,23.04,22.89c0,0-7.24-14.33-23.04-22.89Z"/>
      <path class="cls-1" d="M190.68,146.8s11.37,13.14,27.32,20.97c0,0-6.2-15.51-27.32-20.97Z"/>
      <path class="cls-1" d="M213.71,146.06s14.25,12.48,23.26,24.22c0,0-.37-19.27-23.26-24.22Z"/>
      <path class="cls-1" d="M194.89,165.92s7.61,14.1,23.92,20.38c0,0-5.76-13.14-23.92-20.38Z"/>
      <path class="cls-1" d="M170.8,178.31s5.36,10.93,19.96,15.27c0,0-3.59-11.04-19.96-15.27Z"/>
      <path class="cls-1" d="M202.87,191.54s4.8,11.05,22.58,13.16c0,0-5.62-10.1-22.58-13.16Z"/>
      <path class="cls-1" d="M223.59,178.71s5.64,9.81,19.54,21.6c0,0,.57-15.62-19.54-21.6Z"/>
      <path class="cls-1" d="M245.24,174.04s4.01,11.34,11.82,23.78c0,0,4.57-15.14-11.82-23.78Z"/>
      <path class="cls-1" d="M147.16,179.9s6.45,13.12,25.99,17.18c0,0-11.74-13.83-25.99-17.18Z"/>
      <path class="cls-1" d="M185.06,203.06s8.57,8.42,26.49,9.88c0,0-7.88-9.88-26.49-9.88Z"/>
      <path class="cls-1" d="M221.63,216.12s13.44,10.81,27.51,6.9c0,0-10.39-8.25-27.51-6.9Z"/>
      <path class="cls-1" d="M239.58,206.44s9.84,9.82,21.35,11.99c0,0-7.47-13.17-21.35-11.99Z"/>
      <path class="cls-1" d="M262.38,202.78s.47,7.96,8.75,15.79c0,0,1.7-10.7-8.75-15.79Z"/>
    </g>
    <path class="cls-8" d="M297.15,258.22c-2.63-16.59-7.92-32.59-14.16-48.11-22.97-59.87-61.37-89.41-120.95-109.54-9.26-2.95-19.41-6.72-25.61-14.1-5.22-5.99-8.09-13.77-11.44-21.03-3.44-7.61-6.94-15.33-11.53-22.35-9.35-14.84-25.62-25.13-43.55-24.38-17.3.24-30.76,8.24-37.4,22.07-8.56,4.08-16.89,9.51-18.34,13.54-.42,1.17,5.22,2.53,12.55,5.44,1.73.69,3.8,1.45,5.97,2.6,3.83,2.02,6.91,5.18,9.11,8.91,4.39,7.43,6.69,16.05,6.41,24.74-.36,8.7-1.68,17.73-2.31,26.52-1.79,22.45-2.06,45.64,4.61,67.43,12.1,39.69,45.8,70.53,85.14,82.37,37.32,11.43,77.27,4.7,113.48-7.22,12.2-4.38,25.37-6.35,38.28-4.82,3.41.31,7.02,1.27,10.34,2.16,0,0-.58-4.21-.58-4.21ZM21.07,52.94c3.1-2.81,7.96-5.08,11.57-6.85-.11,3.93,1.72,7.37,5.04,8.62-2.95,1.26-12.48-.74-16.61-1.77ZM281.13,254.09c-9.22-.27-18.47.92-27.33,3.5-4.23,1.24-8.57,2.83-12.8,4.07-33.34,10.28-69.87,15.55-103.69,5.18-41.85-12.45-76.76-47.76-84.51-91.26-3.2-17.3-2.92-35.1-1.56-52.64.62-9.01,1.87-17.7,2.21-26.83.37-12.8-4.19-25.7-12.57-35.38-.06-.07-.12-.14-.18-.21-1.2-1.36-2.54-4.09,1.68-4.63,4.65-.59,7.42-2.55,8.97-4.87.76-.96,4.13-1.74,3.05-3.08-1.33-1.35-2.42,1.22-3.5,1.86-1.38,1.22-5.17,3.46-10.54,1.8-5.85-1.81-2.46-11.22,2.1-16.33,1.64-1.84,3.49-3.48,5.53-4.88,9.65-6.43,22.42-7.39,33.52-4.81,11.49,2.85,20.94,10.61,27.51,20.46,4.51,6.74,7.99,14.08,11.41,21.44,4.35,9.54,8.43,20.03,16.97,26.84,6.61,5.42,14.95,8.46,22.9,11.17,36.19,12.73,71.66,32.19,94.44,63.83,9.62,13.14,16.44,28.07,22.69,43.04,5.53,13.79,10.47,28,13.31,42.6-3.19-.51-6.38-.77-9.62-.87Z"/>
  </g>
  <g>
    <path class="cls-5" d="M23.82,283.84s-7.66-26.16-.77-46.68c1.74-5.17,4.71-9.85,8.71-13.6,6.95-6.53,18.87-17.62,26.81-24.42,4.11-3.52,9.03-5.97,14.32-7.17,10.15-2.3,28.6-6.27,42.07-7.91,5.99-.73,12.06.17,17.58,2.59,10.11,4.44,28.21,12.45,41.37,18.65,5.84,2.75,10.72,7.14,14.09,12.59,1.58,2.55,3.03,4.99,3.56,6.16l10.92,64.25-178.67-4.45Z"/>
    <path class="cls-7" d="M23.71,278.01c.99-9.72,3.14-25.72,7.34-38.22,1.3-3.88,3.56-7.41,6.52-10.19,6.51-6.12,18.62-17.39,26.52-24.16,3.04-2.6,6.73-4.45,10.69-5.35,9.75-2.21,28.07-6.16,41.22-7.76,1-.12,2.02-.18,3.03-.18,3.5,0,6.78,1.01,10.1,2.12,40.14,13.38,51.06,25.49,58.74,32.87l4.65,52.72c-66.29,3.19-129.43,5.19-168.8-1.84Z"/>
    <path class="cls-5" d="M158.93,280.67c-.19.67-3.3-17.55,3.21-33.28,2.44-5.9,6.87-10.79,12.52-13.86,14.43-7.84,32.76-13.97,45.1-17.08,5.12-1.29,10.47-1.35,15.63-.21,8.89,1.97,22.21,5.51,33.63,9.44,3.6,1.24,6.92,3.14,9.81,5.59,4.32,3.65,11.31,9.58,16.81,14.34,4.09,3.54,7.16,8.09,8.9,13.19,2.05,6.03-3.01,18.37-1.58,23.26l-10.27,11.08-138.35.89,4.56-13.36Z"/>
    <path class="cls-7" d="M158.93,280.67c3.72-11.26,7.6-21.89,11.01-30.13,1.7-4.11,4.82-7.56,8.78-9.71,13.77-7.48,31.29-13.32,43.1-16.3,2.03-.51,4.11-.77,6.2-.77,1.84,0,3.68.2,5.47.6,7.79,1.72,39.13,10.15,58.36,27.52,2.98,2.69,5.42,5.88,6.73,9.58,1.86,5.27-.3,10.42-1.23,18.84l4,3.84-140.85,1.5-1.59-4.96Z"/>
    <path class="cls-5" d="M226.97,220.99l-23.65,11.39c-2.77,1.34-4.81,3.48-6.26,5.88-5.06,8.36-11.34,19.24-11.34,19.24-1.19,2.26-1.73,4.73-1.6,7.22.33,6.14,1.52,16.46,1.52,16.46l-23.5,4.81c-6.27-14.44-11.08-28.76,3.14-41.41l10.51-11.91,34.3-11.91,16.87.23Z"/>
    <path class="cls-8" d="M161.12,284.08c-.47,3.2-5.1,1.04-4.36.92-.41-.51-.41-.67-.62-1.15-3.84-12.43-1.37-32.41,7.07-42.57,3.46-3.83,7.99-6.03,12.32-8.38,12.58-6.65,25.41-12.93,38.98-17.45,10.46-3.72,18.62-2.83,29.05.23,13.85,3.8,27.29,9.02,39.56,16.68,8.23,5.35,16.03,11.37,21.44,19.89,1.35,2.27,2.56,4.71,3.13,7.32.55,2.64.56,5.13.48,7.74-.24,4.98-1.05,9.86-2.67,14.67-.53,1.57-2.23,2.42-3.8,1.89-1.57-.53-2.42-2.23-1.89-3.8,1.46-4.1,2.3-8.61,2.57-13.04.1-2.45.13-4.83-.42-6.97-1.86-6.02-6.09-10.67-10.83-14.97-10.27-9.19-22.78-15.47-35.7-20.29-4.34-1.61-8.76-3.02-13.22-4.27-4.33-1.14-8.75-2.49-13.23-2.62-9.1-.25-17.66,3.69-26,7.05-8.54,3.68-16.91,7.87-25.13,12.3-4.12,2.25-8.23,4.33-10.9,7.37-2.84,3.28-4.19,7.55-5.43,11.64-2.09,7.53-2.36,15.58-1.15,23.29.11.9.35,1.88.52,2.72,0,0-.01-.02-.01-.02,0,0-.05-.11-.05-.11.01.03-.11-.2-.26-.38.76-.08-3.83-2.23-4.28.92,1.01-3.17,5.62-1.8,4.81,1.37h0Z"/>
    <path class="cls-5" d="M125.74,189.22l-47.88,17.51c-4.4,1.61-8.1,4.66-10.43,8.65-7.43,12.71-17.8,29.03-17.8,29.03-2.11,3.16-3.1,6.91-2.79,10.68.93,11.45,4.16,33.87,4.16,33.87,0,0-14.36,6.63-25.31-7.55-10.95-14.18-8.04-31.09-2.01-46.26l30.98-30.62,14.94-10.29,44.25-9.29,11.89,4.27Z"/>
    <path class="cls-8" d="M25.97,288.74c-12.91-10.7-10.2-33.08-6.89-47.6,1.14-5.52,3.15-11.34,7.19-15.4,1.55-1.8,4.12-3.97,5.82-5.64,5.62-5.28,11.61-11.1,17.28-16.28,6.05-5.62,12.26-11.49,20.46-13.68,12.94-3.14,25.92-5.61,39.11-7.65,2.65-.36,5.43-.81,8.1-.94,8.36-.32,16.15,2.79,23.83,5.58,17.37,6.67,34.96,15.11,47.93,28.91,1.91,2.18,3.71,4.33,5.04,6.99,1.33,3-2.95,5.12-4.5,2.18-1.06-2.1-2.63-4.09-4.21-5.89-12.28-13.35-29.19-21.27-45.92-27.76-7.06-2.55-14.39-5.57-21.98-5.3-12.94,1.36-25.67,4.27-38.43,7.01-4.83,1.06-9.93,2.1-14.14,4.74-4.36,2.61-7.89,6.37-11.66,9.76-5.55,5.17-11.57,11.08-17.09,16.37-3.39,3.28-7.53,6.74-9.24,11.19-2.45,7.13-3.72,14.82-4.28,22.28-.54,9.51.51,20.31,6.95,27.48,2.05,2.24-.97,5.53-3.38,3.68h0Z"/>
    <g>
      <path class="cls-6" d="M47.28,297.58h233.68c10.15,0,19.11-6.78,21.73-16.59.03-.11.06-.21.08-.32-17.43-2.66-26.28,1.42-44.82,1.49-15.73.06-24.82-8.1-55.9-4.94-20.51,2.09-23.15,6.79-46.92,4.82-10.7-.89-20.24-5.23-36.96-4.84-13.08.31-25.7,5.08-44.89,4.73-15.95-.3-28.35-6.79-51.39-4.14,1.11,3.23,7.38,19.49,25.4,19.79Z"/>
      <path class="cls-8" d="M47.3,294.58h131.68c22.89,0,78.54,0,100.82,0,0,0,1.03,0,1.03,0,0,0,.91-.04.91-.04l.89-.04.89-.11c7.74-.92,14.52-6.87,16.35-14.49,0,0,2.44,3.71,2.44,3.71-17.49-4.04-35.26,3.53-52.87.54-6.07-1.03-11.69-2.64-17.35-3.62-5.66-.98-11.38-1.45-17.14-1.4-4.13,0-8.84.4-12.98.79-7.32.73-14.27,2.39-21.51,3.92-7.47,1.53-15.18,1.75-22.72,1.13-10.35-.51-20.39-4.4-30.58-5.1-11.72-1.32-22.94,1.59-34.56,3.44-11.8,1.94-24.41,1.9-36.02-.76-11.43-2.34-22.87-4.08-34.37-1.79,0,0,2.49-3.94,2.49-3.94,3.59,10.1,11.53,17.6,22.6,17.76h0ZM47.25,300.58c-13.48-.08-24.13-9.61-28.29-22.06-.65-1.75.72-3.71,2.59-3.7,6.08-.27,12.15-.3,18.19.11,11.85.75,23.08,4.24,34.88,4.22,5.77.08,11.51-.38,17.25-1.08,8.7-1.05,17.65-3.1,26.6-3.27,8.99-.25,18.21,1.19,26.85,3.01,4.35.89,8.39,1.47,12.77,1.67,7.15.43,14.31.3,21.31-1.09,2.82-.53,5.69-1.21,8.63-1.8,8.03-1.67,16.42-2.47,24.62-2.71,6.78-.09,13.63.25,20.34,1.41,8.88,1.49,16.84,4.29,25.66,4.13,8.87.04,17.28-1.28,26.28-2,6.06-.47,12.21-.24,18.28.28,1.76.22,2.93,2.01,2.44,3.71-1.47,6.01-5.38,11.44-10.55,14.86-3.54,2.4-7.72,3.79-11.97,4.19-62.04.28-172.82,0-235.89.1h0Z"/>
    </g>
  </g>
</svg>